<svg aria-hidden="true" style="position:absolute;width:0;height:0;overflow:hidden" xmlns="http://www.w3.org/2000/svg">
  <defs>
    <symbol id="icon-close" viewBox="0 0 30 32">
      <path d="M18.24 16 28.825 5.44a2.475 2.475 0 0 0 0-3.496 2.469 2.469 0 0 0-3.496 0l-10.56 10.585L4.209 1.944a2.469 2.469 0 0 0-3.496 0 2.47 2.47 0 0 0 0 3.496L11.298 16 .713 26.56a2.46 2.46 0 0 0 0 3.496 2.46 2.46 0 0 0 3.496 0l10.56-10.585 10.56 10.585a2.46 2.46 0 0 0 3.495 0 2.46 2.46 0 0 0 0-3.496L18.239 16z"/>
    </symbol>
    <symbol id="icon-play" viewBox="0 0 33 32">
      <path fill="#fff" style="fill:var(--color1, #fff)" d="M27.22 16.063c0 6.01-4.872 10.882-10.882 10.882S5.456 22.073 5.456 16.063 10.328 5.181 16.338 5.181 27.22 10.053 27.22 16.063z"/>
      <path fill="#2dcbe0" style="fill:var(--color2, #2dcbe0)" d="M16.308.279C7.586.279.554 7.311.554 16.033s7.032 15.754 15.754 15.754 15.754-7.032 15.754-15.754S25.03.279 16.308.279zm6.993 16.484-10.49 6.148c-.115.077-.307.115-.423.115s-.307-.038-.423-.115c-.269-.192-.423-.423-.423-.73V9.924h-.038c0-.307.192-.615.423-.73s.615-.192.884 0l10.49 6.109c.269.192.423.423.423.73s-.192.615-.423.73z"/>
    </symbol>
    <symbol id="icon-chewron" viewBox="0 0 64 32">
      <path d="M1.297 30.68A4.473 4.473 0 0 0 4.465 32a4.473 4.473 0 0 0 3.168-1.32l20.432-20.432a4.454 4.454 0 0 1 3.168-1.319 4.473 4.473 0 0 1 3.168 1.319L54.833 30.68A4.473 4.473 0 0 0 58.001 32a4.473 4.473 0 0 0 3.168-1.32 4.46 4.46 0 0 0 0-6.29L40.693 3.914a13.384 13.384 0 0 0-18.915 0L1.302 24.39a4.461 4.461 0 0 0 0 6.29z"/>
    </symbol>
    <symbol id="icon-instagram" viewBox="0 0 32 32">
      <path fill="#fff" style="fill:var(--color1, #fff)" d="M24.313 5.548a1.872 1.872 0 0 0-1.726 1.153 1.87 1.87 0 0 0 1.361 2.547 1.87 1.87 0 0 0 1.917-.794 1.87 1.87 0 0 0-1.553-2.906zm7.161 3.767a11.803 11.803 0 0 0-.716-3.783 7.69 7.69 0 0 0-1.806-2.755 7.316 7.316 0 0 0-2.755-1.79 11.378 11.378 0 0 0-3.783-.732C20.764.162 20.235.162 16 .162s-4.764 0-6.414.093a11.358 11.358 0 0 0-3.783.732 7.446 7.446 0 0 0-2.755 1.79 7.316 7.316 0 0 0-1.79 2.755 11.378 11.378 0 0 0-.732 3.783c-.093 1.65-.093 2.179-.093 6.414s0 4.764.093 6.414c.027 1.293.274 2.573.732 3.783a7.308 7.308 0 0 0 1.79 2.755 7.441 7.441 0 0 0 2.755 1.79c1.21.457 2.489.705 3.783.732 1.65.093 2.179.093 6.414.093s4.764 0 6.414-.093a11.358 11.358 0 0 0 3.783-.732 7.308 7.308 0 0 0 2.755-1.79 7.556 7.556 0 0 0 1.806-2.755c.444-1.213.686-2.491.716-3.783 0-1.65.093-2.179.093-6.414s0-4.764-.093-6.414zm-2.802 12.641a8.731 8.731 0 0 1-.529 2.896 4.757 4.757 0 0 1-1.168 1.79 4.982 4.982 0 0 1-1.79 1.168 8.722 8.722 0 0 1-2.896.529c-1.557.078-2.133.093-6.227.093s-4.67 0-6.227-.093a8.93 8.93 0 0 1-3.02-.467 5.08 5.08 0 0 1-1.712-1.168 4.668 4.668 0 0 1-1.152-1.79 8.633 8.633 0 0 1-.623-2.958c0-1.557-.093-2.133-.093-6.227s0-4.67.093-6.227a8.617 8.617 0 0 1 .545-2.958 4.665 4.665 0 0 1 1.23-1.712 4.897 4.897 0 0 1 1.712-1.245 8.933 8.933 0 0 1 2.958-.529c1.557 0 2.133-.093 6.227-.093s4.67 0 6.227.093c.988.011 1.967.19 2.896.529a4.779 4.779 0 0 1 1.853 1.245c.51.478.909 1.063 1.168 1.712a8.73 8.73 0 0 1 .529 2.958c.078 1.557.093 2.133.093 6.227s-.016 4.67-.093 6.227zM16 7.743a7.984 7.984 0 0 0-7.368 4.941 7.99 7.99 0 0 0 5.83 10.879 7.984 7.984 0 0 0 8.194-3.399 7.984 7.984 0 0 0 1.345-4.435 7.98 7.98 0 0 0-2.34-5.657A7.965 7.965 0 0 0 16 7.743zm0 13.17a5.18 5.18 0 0 1-4.789-3.201 5.187 5.187 0 0 1 1.124-5.649 5.186 5.186 0 0 1 5.649-1.124 5.18 5.18 0 0 1 2.805 6.773 5.19 5.19 0 0 1-4.79 3.201z"/>
    </symbol>
    <symbol id="icon-facebook" viewBox="0 0 32 32">
      <path fill="#fff" style="fill:var(--color1, #fff)" d="M27.007.161H4.993A4.566 4.566 0 0 0 .432 4.722v22.014a4.566 4.566 0 0 0 4.561 4.561h9.182V20.29h-3.649v-5.473h3.649v-3.709a5.479 5.479 0 0 1 5.473-5.473h5.534v5.473h-5.534v3.709h5.534l-.912 5.473h-4.622v11.007h7.358a4.566 4.566 0 0 0 4.561-4.561V4.722A4.566 4.566 0 0 0 27.006.161z"/>
    </symbol>
    <symbol id="icon-callendar" viewBox="0 0 30 32">
      <path fill="none" stroke="#fff" style="stroke:var(--color1, #fff)" stroke-linejoin="round" stroke-linecap="round" stroke-width="2.526" d="M5.053 9.998a2.523 2.523 0 0 1 2.526-2.526h15.158a2.523 2.523 0 0 1 2.526 2.526v15.158a2.523 2.523 0 0 1-2.526 2.526H7.579a2.523 2.523 0 0 1-2.526-2.526V9.998zM20.211 4.946v5.053M10.105 4.946v5.053M5.053 15.051h20.21M13.895 20.104h1.263M15.158 20.104v3.789"/>
    </symbol>
    <symbol id="icon-mail" viewBox="0 0 30 32">
      <path fill="none" stroke="#fff" style="stroke:var(--color1, #fff)" stroke-linejoin="round" stroke-linecap="round" stroke-width="2.526" d="M3.789 10a2.523 2.523 0 0 1 2.526-2.526h17.684A2.523 2.523 0 0 1 26.525 10v12.632a2.523 2.523 0 0 1-2.526 2.526H6.315a2.523 2.523 0 0 1-2.526-2.526V10z"/>
      <path fill="none" stroke="#fff" style="stroke:var(--color1, #fff)" stroke-linejoin="round" stroke-linecap="round" stroke-width="2.526" d="m3.789 10 11.368 7.579L26.525 10"/>
    </symbol>
    <symbol id="icon-phone" viewBox="0 0 30 32">
      <path fill="#fff" style="fill:var(--color1, #fff)" d="M21.979 28.948A19.48 19.48 0 0 1 2.526 9.495a5.81 5.81 0 0 1 5.811-5.811c.326-.002.652.027.973.088.31.046.614.122.909.227a1.26 1.26 0 0 1 .821.948l1.731 7.579a1.264 1.264 0 0 1-.328 1.162c-.164.177-.177.189-1.731.998a12.52 12.52 0 0 0 6.152 6.177c.821-1.566.834-1.579 1.011-1.743a1.263 1.263 0 0 1 1.162-.328l7.579 1.731a1.264 1.264 0 0 1 .909.821 5.434 5.434 0 0 1 .316 1.882 5.81 5.81 0 0 1-5.861 5.722z"/>
    </symbol>
    <symbol id="icon-wash" viewBox="0 0 33 32">
      <path fill="#27d0e6" style="fill:var(--color3, #27d0e6)" d="M32.86 9.941c-.819-2.361-2.48-3.955-4.442-4.263-2.664-.418-3.769-1.789-4.84-3.405C21.716-.53 16.781-.334 14.715.704l-.655.338c-1.433.751-2.915 1.524-4.984 1.212-3.861-.592-6.534-.04-7.945 1.642-2.15 2.566-.701 6.823-.003 8.869l.063.189c.872 2.569.497 3.671-.125 5.499-.215.63-.453 1.331-.673 2.173-.602 2.319-.368 4.194.695 5.565 1.256 1.629 3.587 2.453 6.925 2.453h3.533c.117.841.054 1.448.053 1.46l-.056.438.371.236c.077.05 1.934 1.222 4.693 1.222 2.756 0 4.63-1.169 4.707-1.22l.327-.206-.007-.758c-.004-.38-.009-.769-.001-1.17h2.216c4.084 0 4.498-2.298 4.938-4.733.34-1.868.722-3.984 2.637-6.048 2.245-2.419 2.213-5.678 1.437-7.923zM16.608 30.609a8.37 8.37 0 0 1-3.598-.815c.024-.842-.082-2.634-1.153-4.346-.547-.875-1.116-1.503-1.574-2.004-.716-.785-1.059-1.193-1.051-1.879.02-1.516-.616-3.517-1.524-4.846a.943.943 0 0 1 .398-.079c.289 0 1.037.117 1.698 1.196.616 1.009 1.089 1.418 1.633 1.418a.95.95 0 0 0 .729-.348c.181-.215.731-.87.064-4.623-.229-1.289-.766-4.307-.195-5.078.052-.069.09-.086.201-.095.364 0 .698.693.801 1.076l.516 2.811 1.367-.252-.519-2.832c-.126-.943.03-1.984.427-2.044.656 0 .964 1.338 1.01 1.696l.649 3.434 1.365-.259-.633-3.342c-.013-.206.03-.539.149-.666.017-.021.057-.063.212-.063.776.011 1.077 1.667 1.133 2.643l.295 2.334 1.378-.176-.282-2.225c.007-.344.09-.496.172-.514 1.14.082 2.14 4.511 2.149 6.653 0 .186.006.375.011.572.037 1.324.085 2.968-1.361 6.349-.858 2.001-.844 3.925-.825 5.478a8.442 8.442 0 0 1-3.64.829zM30.407 16.92c-2.192 2.359-2.631 4.792-2.985 6.744-.433 2.391-.65 3.591-3.573 3.591h-2.117a8.601 8.601 0 0 1 .616-2.407c1.564-3.66 1.513-5.551 1.471-6.933l-.01-.537c0-.079-.391-7.819-3.561-8.036a1.6 1.6 0 0 0-.447.064c-.4-1.355-1.172-2.11-2.239-2.123-.368 0-.699.097-.971.289-.435-.698-1.104-1.229-2.129-1.059-.788.139-1.172.758-1.352 1.45a1.705 1.705 0 0 0-.877-.241l-.215.013a1.573 1.573 0 0 0-1.102.645c-.858 1.156-.516 3.566-.057 6.147.248 1.395.308 2.303.298 2.852-.05-.077-.107-.165-.17-.268-.723-1.182-1.772-1.859-2.882-1.859-.781 0-1.464.352-1.74.901-.205.401-.162.862.107 1.228.798 1.087 1.387 2.878 1.371 4.166-.017 1.263.646 1.99 1.412 2.832.443.486.943 1.036 1.422 1.805.223.355.382.716.513 1.071H8.011c-2.886 0-4.846-.643-5.826-1.912-.786-1.014-.937-2.484-.448-4.366.209-.807.435-1.471.642-2.074.668-1.96 1.15-3.376.126-6.392l-.066-.193C1.823 10.513.545 6.757 2.193 4.79 3.27 3.504 5.518 3.113 8.861 3.627c2.524.388 4.285-.537 5.84-1.354l.633-.328c1.412-.711 5.663-1.041 7.079 1.096 1.165 1.752 2.567 3.504 5.784 4.01 1.423.223 2.705 1.506 3.342 3.345.65 1.864.693 4.558-1.133 6.525z"/>
    </symbol>
    <symbol id="icon-leaves" viewBox="0 0 33 32">
      <path fill="none" stroke="#fff" style="stroke:var(--color1, #fff)" stroke-linejoin="round" stroke-linecap="round" stroke-miterlimit="10" stroke-width="1.875" d="M29.034.938s1.524 6.374 1.972 8.512c2.063 9.833-3.075 16.796-11.428 18.122C4.858 29.444 3.415 8.908 16.482 6.91 23.986 5.804 27.361 3.095 29.034.938z"/>
      <path fill="none" stroke="#fff" style="stroke:var(--color1, #fff)" stroke-linejoin="round" stroke-linecap="round" stroke-miterlimit="10" stroke-width="1.875" d="M1.352 31.059C4.114 15.237 25.291 20.68 29.035.937"/>
    </symbol>
    <symbol id="icon-smile" viewBox="0 0 33 32">
      <path fill="#fff" style="fill:var(--color1, #fff)" d="M16.4 0C7.578 0 .4 7.178.4 16s7.178 16 16 16 16-7.178 16-16-7.178-16-16-16zm0 30.27c-3.92 0-7.475-1.589-10.057-4.156a14.34 14.34 0 0 1-2.587-3.505 14.18 14.18 0 0 1-1.626-6.61c0-7.869 6.402-14.27 14.27-14.27 3.732 0 7.134 1.441 9.679 3.795a14.343 14.343 0 0 1 3.196 4.324 14.185 14.185 0 0 1 1.395 6.151c0 7.869-6.402 14.27-14.27 14.27z"/>
      <path fill="#fff" style="fill:var(--color1, #fff)" d="M11.175 14.162a1.73 1.73 0 1 0 0-3.46 1.73 1.73 0 0 0 0 3.46zM21.878 14.162a1.73 1.73 0 1 0 0-3.46 1.73 1.73 0 0 0 0 3.46zM16.369 24.865c3.346 0 6.553-1.711 8.39-4.553l-1.453-.939a8.29 8.29 0 0 1-7.859 3.709 8.3 8.3 0 0 1-5.954-3.709l-1.453.939c1.599 2.475 4.294 4.152 7.208 4.489.374.043.748.064 1.12.064z"/>
    </symbol>
    <symbol id="icon-shild" viewBox="0 0 28 32">
      <path fill="#fff" style="fill:var(--color1, #fff)" d="M14 0 .332 4.971V16.02c0 12.485 13.264 15.881 13.397 15.914L14 32l.271-.066c.133-.033 13.397-3.429 13.397-15.914V4.971L13.999 0zm11.39 16.02c0 9.885-9.578 13.107-11.386 13.626-1.743-.516-11.395-3.825-11.395-13.626V6.566l11.39-4.141 11.39 4.141v9.454z"/>
      <path fill="#fff" style="fill:var(--color1, #fff)" d="M7.971 15.215 6.36 16.826l5.362 5.362 9.918-9.918-1.611-1.611-8.307 8.307-3.751-3.751z"/>
    </symbol>
    <symbol id="icon-hand-check" viewBox="0 0 33 32">
      <path fill="none" stroke="#fff" style="stroke:var(--color1, #fff)" stroke-linejoin="round" stroke-linecap="round" stroke-miterlimit="10" stroke-width="1.25" d="m30.922 20.486-8.458 5.724a2.055 2.055 0 0 1-1.536.316L9.697 24.381a1.73 1.73 0 0 1-1.099-.716L4.25 17.271l-.201.136a2.6 2.6 0 0 1 2.218-.61l10.902 2.086a1.94 1.94 0 0 1 1.247.819 1.936 1.936 0 0 1-.136 2.361l1.765.338a2.112 2.112 0 0 0 1.582-.326l7.103-4.808c.444-.301.97-.392 1.461-.299s.946.374 1.247.816a1.948 1.948 0 0 1-.518 2.702z"/>
      <path fill="none" stroke="#fff" style="stroke:var(--color1, #fff)" stroke-linejoin="round" stroke-linecap="round" stroke-miterlimit="10" stroke-width="1.25" d="m8.995 24.247-7.962 4.128-.008-8.92 3.226-2.184 4.744 6.976zM18.282 22.062l-5.235-1.001M22.65 9.875a6.25 6.25 0 1 1-12.5 0 6.25 6.25 0 0 1 12.5 0z"/>
      <path fill="none" stroke="#fff" style="stroke:var(--color1, #fff)" stroke-linejoin="round" stroke-linecap="round" stroke-miterlimit="10" stroke-width="1.25" d="m19.212 7.955-3.839 3.839-1.786-1.786M30.925 23.307l-4.603 3.131"/>
    </symbol>
    <symbol id="icon-location" viewBox="0 0 23 32">
      <path fill="#fff" style="fill:var(--color1, #fff)" d="M11.6.25C5.35.25.265 5.335.265 11.585c0 5.084 3.444 9.688 6.775 14.14 1.464 1.957 2.847 3.805 3.911 5.649a.75.75 0 0 0 1.3 0c1.065-1.844 2.447-3.692 3.911-5.649 3.331-4.452 6.775-9.056 6.775-14.14C22.937 5.335 17.852.25 11.601.25zm3.36 24.577c-1.214 1.622-2.373 3.172-3.36 4.727-.987-1.556-2.146-3.105-3.36-4.727-3.184-4.256-6.476-8.656-6.476-13.242 0-5.423 4.412-9.835 9.835-9.835s9.835 4.412 9.835 9.835c0 4.585-3.292 8.986-6.476 13.242zM11.6 4.791c-3.747 0-6.795 3.048-6.795 6.795s3.048 6.795 6.795 6.795 6.795-3.048 6.795-6.795-3.048-6.795-6.795-6.795zm0 12.089c-2.92 0-5.295-2.375-5.295-5.295S8.68 6.29 11.6 6.29s5.295 2.375 5.295 5.295S14.52 16.88 11.6 16.88z"/>
    </symbol>
    <symbol id="icon-satisfaction" viewBox="0 0 32 32">
      <path fill="#fff" style="fill:var(--color1, #fff)" d="M24.66 18.25h-4.75v-2.688c0-.549 0-1.469-.478-2.285-.593-1.013-1.694-1.527-3.272-1.527a.753.753 0 0 0-.75.75v3.85l-1.343 2.182-1.657 1.083v-.614a.753.753 0 0 0-.75-.75h-5a.753.753 0 0 0-.75.75v12a.753.753 0 0 0 .75.75h5a.744.744 0 0 0 .641-.362c.414.237.883.361 1.36.361h10a2.252 2.252 0 0 0 1.978-1.177 2.254 2.254 0 0 0-.094-2.3 2.255 2.255 0 0 0 .853-1.54 2.25 2.25 0 0 0-.354-1.461 2.255 2.255 0 0 0 .865-1.711 2.245 2.245 0 0 0-.573-1.562 2.249 2.249 0 0 0-1.676-3.75zm-13.75 12h-3.5v-10.5h3.5v10.5zm13.281-.22a.746.746 0 0 1-.532.22h-10a1.257 1.257 0 0 1-1.25-1.251v-7.594l2.723-1.778a.766.766 0 0 0 .329-.499l1.338-2.173a.749.749 0 0 0 .111-.393v-3.256c1.374.234 1.5 1.164 1.5 2.256v3.437a.753.753 0 0 0 .75.75h5.5a.753.753 0 0 1 .75.75.749.749 0 0 1-.75.75h-1.5a.753.753 0 0 0-.75.75.749.749 0 0 0 .75.75h1.5a.753.753 0 0 1 .75.75.749.749 0 0 1-.75.75h-1.5a.753.753 0 0 0-.75.75.749.749 0 0 0 .75.75h1a.753.753 0 0 1 .75.75.749.749 0 0 1-.75.75h-1a.753.753 0 0 0-.75.75.749.749 0 0 0 .75.75h.5c.148 0 .293.044.417.126s.22.199.276.336a.755.755 0 0 1-.162.817z"/>
      <path fill="#fff" style="fill:var(--color1, #fff)" d="M9.16 29.813a.75.75 0 1 0 0-1.5.75.75 0 0 0 0 1.5z"/>
      <path fill="#2dcbe0" style="fill:var(--color2, #2dcbe0)" d="m13.14 6.651-.456 2.659a.751.751 0 0 0 .298.733.75.75 0 0 0 .79.057l2.388-1.256 2.388 1.256c.523.298 1.21-.2 1.088-.791L19.18 6.65l1.932-1.883a.756.756 0 0 0 .19-.769.749.749 0 0 0-.606-.511l-2.67-.388L16.832.68a.754.754 0 0 0-.673-.418.75.75 0 0 0-.673.418l-1.194 2.419-2.67.388a.754.754 0 0 0-.606.511c-.043.133-.048.276-.015.412s.104.26.205.357l1.932 1.883zm1.759-2.123a.749.749 0 0 0 .565-.41l.696-1.41.696 1.41a.752.752 0 0 0 .565.41l1.556.226-1.126 1.098a.76.76 0 0 0-.216.664l.266 1.55-1.392-.732a.745.745 0 0 0-.698 0l-1.392.732.266-1.55a.741.741 0 0 0-.216-.664l-1.126-1.098 1.556-.226zM31.6 11.4l-2.159-1.619.11-2.696a.744.744 0 0 0-.391-.689.75.75 0 0 0-.791.046l-2.206 1.553-2.53-.938a.747.747 0 0 0-.986.512.74.74 0 0 0 .009.412l.795 2.579-1.673 2.117a.752.752 0 0 0 .183 1.096.746.746 0 0 0 .394.119l2.698.041 1.496 2.246c.32.513 1.157.403 1.334-.173l.872-2.553 2.598-.729a.756.756 0 0 0 .535-.584.754.754 0 0 0-.287-.738zm-3.63.713c-.117.033-.224.094-.313.177s-.155.187-.194.302l-.509 1.489-.872-1.309a.754.754 0 0 0-.613-.334l-1.573-.024.976-1.234a.75.75 0 0 0 .128-.686l-.463-1.503 1.475.546a.749.749 0 0 0 .692-.09l1.286-.905-.064 1.572a.752.752 0 0 0 .3.63l1.258.944-1.515.425zM9.966 13.891c.603.011.966-.755.577-1.215L8.87 10.559l.795-2.579c.041-.134.044-.276.009-.412s-.108-.258-.21-.354a.752.752 0 0 0-.776-.158l-2.53.938-2.206-1.553a.745.745 0 0 0-.791-.046.75.75 0 0 0-.391.689l.11 2.696-2.159 1.619a.754.754 0 0 0-.287.738.744.744 0 0 0 .535.584l2.598.729.872 2.553c.177.576 1.014.686 1.334.173l1.496-2.246 2.698-.041zm-3.728-1.119-.872 1.309-.509-1.488a.745.745 0 0 0-.507-.479l-1.514-.425 1.258-.944a.74.74 0 0 0 .3-.63L4.33 8.543l1.286.905a.76.76 0 0 0 .692.09l1.475-.546-.464 1.503a.752.752 0 0 0 .128.686l.975 1.234-1.573.024a.755.755 0 0 0-.613.334z"/>
    </symbol>
    <symbol id="icon-wash-hand" viewBox="0 0 32 32">
      <path fill="#fff" style="fill:var(--color1, #fff)" d="M31.529 15.196v-.111a2.673 2.673 0 0 0-2.67-2.67h-.111c-.678 0-1.277.229-1.782.682-.894.802-2.095 1.359-3.43 1.611-.333-.631-.833-1.202-1.494-1.708.198-.041.393-.1.595-.182l1.822-.738c.468-.189.794-.582.895-1.077l.229-1.127c.053-.262-.01-.521-.18-.728s-.41-.321-.678-.321h-3.948a.982.982 0 0 0-.879.527l-.179.336-1.128-2.181c-.806-1.56-2.391-2.49-4.24-2.49h-2.132l1.511-.482c.221-.07.369-.279.369-.519s-.148-.448-.369-.519l-1.872-.596-.525-2.179c-.059-.241-.267-.411-.508-.411s-.449.169-.508.411l-.525 2.179-1.871.596c-.221.07-.369.279-.369.519s.148.448.369.519l1.511.482H.545a.392.392 0 0 0-.391.391v18.193c0 .215.175.391.391.391h13.941c-.275 1.214-.807 2.303-1.548 3.129a2.598 2.598 0 0 0-.682 1.782v.111a2.673 2.673 0 0 0 2.67 2.67h.111c.678 0 1.277-.229 1.782-.682a6.243 6.243 0 0 1 1.319-.896l.165.412c.1.25.143.471.143.74v.036c0 .215.175.39.391.39h5.622a.391.391 0 0 0 .391-.39v-.026c0-.309.056-.56.186-.84l.234-.501a6.38 6.38 0 0 1 1.696 1.076 2.598 2.598 0 0 0 1.782.682h.111a2.673 2.673 0 0 0 2.67-2.67v-.111c0-.678-.229-1.277-.682-1.782-1.121-1.25-1.763-3.099-1.763-5.072s.642-3.823 1.763-5.072a2.599 2.599 0 0 0 .681-1.782zm-8.827-.373a9.004 9.004 0 0 1-.809.036c-1.354 0-2.648-.303-3.732-.854l2.624-.903c.863.496 1.505 1.073 1.916 1.72zm-2.115-5.102a.202.202 0 0 1 .189-.114h3.948c.033 0 .051.008.073.034s.026.046.02.078l-.229 1.127a.671.671 0 0 1-.422.509l-1.822.738a2.489 2.489 0 0 1-.99.193h-.291l-.907-1.755.432-.811zM10.241 3.58a.392.392 0 0 0 .261-.281l.325-1.348.325 1.348a.392.392 0 0 0 .261.281l1.374.438-1.374.438a.392.392 0 0 0-.261.281l-.325 1.348-.325-1.348a.392.392 0 0 0-.261-.281l-1.374-.438 1.374-.438zm-.286 2.219.364 1.513c.059.242.267.411.508.411s.449-.169.508-.411l.365-1.513h2.652c1.551 0 2.877.773 3.547 2.068l2.372 4.587-2.975 1.023a5.892 5.892 0 0 1-.474-.381 2.598 2.598 0 0 0-1.782-.682h-.111a2.673 2.673 0 0 0-2.484 1.694l-5.952.023.149-.618 2.41-.768c.236-.075.394-.299.394-.557s-.159-.482-.394-.557l-2.41-.768-.674-2.798c-.063-.259-.284-.439-.54-.439s-.478.181-.54.439l-.675 2.8-2.41.768c-.236.075-.394.299-.394.557s.159.482.394.557l2.41.768.151.627-3.425.012V5.799h9.017zm-5.297 7.038-2.032-.648 2.032-.648a.392.392 0 0 0 .261-.281l.507-2.104.507 2.104a.392.392 0 0 0 .261.281l2.032.648-2.032.648a.392.392 0 0 0-.261.281l-.507 2.104-.507-2.104a.392.392 0 0 0-.261-.281zM.937 19.104l12.067-.045c.039-.001.064.01.092.038s.038.052.038.092v1.204a.13.13 0 0 1-.13.13l-12.069.045v-1.465zm0 4.108V21.35l12.071-.045a.913.913 0 0 0 .908-.911V19.19a.893.893 0 0 0-.268-.646.892.892 0 0 0-.643-.266h-.003l-12.065.045v-3.387l3.613-.014.335 1.391c.063.259.284.439.54.439s.478-.181.54-.439l.337-1.398 5.962-.023a2.496 2.496 0 0 0-.008.194v.111c0 .678.229 1.277.682 1.782 1.121 1.25 1.763 3.099 1.763 5.072 0 .394-.026.782-.075 1.162l-13.69-.001zm23.392 6.887a2.675 2.675 0 0 0-.237.806h-4.884a2.727 2.727 0 0 0-.178-.676l-1.297-3.235a2.46 2.46 0 0 1-.183-.838l-.122-2.554a1.028 1.028 0 0 1 .051-.389l.637-1.979c.016-.048.041-.075.088-.092s.084-.013.127.014c.493.312.722.903.57 1.47l-.244.911a.383.383 0 0 0-.013.101v1.287c0 .238.144.447.366.532s.468.025.627-.152l.548-.611a2.404 2.404 0 0 0 .631-1.651v-4.449c0-.211.172-.383.383-.383h.035c.211 0 .383.172.383.383v5.246a.392.392 0 0 0 .782 0v-5.986c0-.211.172-.383.383-.383h.035c.211 0 .383.172.383.383v5.986a.392.392 0 0 0 .782 0v-5.246c0-.211.172-.383.383-.383h.035c.211 0 .383.172.383.383v5.246a.392.392 0 0 0 .782 0v-2.55c0-.211.172-.383.383-.383h.035c.211 0 .383.172.383.383v4.143c0 .217-.039.393-.131.589l-1.902 4.077zm6.419-14.903c0 .486-.158.899-.482 1.261-1.247 1.392-1.962 3.43-1.962 5.594s.715 4.202 1.962 5.594c.325.362.482.775.482 1.261v.111a1.891 1.891 0 0 1-1.889 1.889h-.111c-.486 0-.899-.158-1.261-.482a7.174 7.174 0 0 0-1.886-1.202l1.338-2.868a2.1 2.1 0 0 0 .204-.919v-4.143c0-.642-.522-1.164-1.164-1.164h-.035c-.134 0-.263.024-.383.066v-1.599c0-.642-.522-1.164-1.164-1.164h-.035c-.154 0-.299.031-.433.085a1.166 1.166 0 0 0-1.113-.824h-.035c-.524 0-.967.348-1.113.824a1.16 1.16 0 0 0-.433-.085H21.2c-.642 0-1.164.522-1.164 1.164v4.449c0 .435-.141.805-.432 1.129l-.178.199v-.681l.23-.861a2.102 2.102 0 0 0-.906-2.332c-.247-.157-.535-.188-.81-.088s-.476.308-.566.587l-.637 1.979c-.072.225-.1.43-.088.665l.122 2.554c.019.391.092.728.238 1.091l.84 2.095a7.007 7.007 0 0 0-1.548 1.042 1.812 1.812 0 0 1-1.261.482h-.111a1.891 1.891 0 0 1-1.889-1.889v-.111c0-.486.158-.899.482-1.261 1.247-1.392 1.962-3.43 1.962-5.594s-.715-4.202-1.962-5.594a1.812 1.812 0 0 1-.482-1.261v-.111c0-1.041.847-1.889 1.889-1.889h.111c.486 0 .899.158 1.261.482 1.392 1.247 3.43 1.962 5.594 1.962s4.202-.715 5.594-1.962a1.812 1.812 0 0 1 1.261-.482h.111c1.041 0 1.889.847 1.889 1.889v.111z"/>
      <path fill="#2dcbe0" style="fill:var(--color2, #2dcbe0)" d="M5.936 8.053a.47.47 0 0 0-.892 0l-.886 2.64a.155.155 0 0 1-.089.095l-2.476 1.011a.47.47 0 0 0 0 .871l2.476 1.011a.155.155 0 0 1 .089.095l.886 2.64a.47.47 0 0 0 .892 0l.886-2.64a.158.158 0 0 1 .089-.095l2.476-1.011a.47.47 0 0 0 0-.871l-2.476-1.011a.155.155 0 0 1-.089-.095l-.885-2.64zM11.271.862a.47.47 0 0 0-.894 0l-.632 1.93a.156.156 0 0 1-.089.096l-1.809.757a.47.47 0 0 0 0 .868l1.809.757a.162.162 0 0 1 .089.096l.632 1.93a.47.47 0 0 0 .894 0l.632-1.93a.156.156 0 0 1 .089-.096l1.809-.757a.47.47 0 0 0 0-.868l-1.809-.757a.162.162 0 0 1-.089-.096l-.632-1.93z"/>
    </symbol>
    <symbol id="icon-phone-check" viewBox="0 0 18 32">
      <path fill="#fff" style="fill:var(--color1, #fff)" d="M15.803 0H2.438A2.147 2.147 0 0 0 .294 2.144v27.711c0 1.182.962 2.144 2.144 2.144h13.365a2.147 2.147 0 0 0 2.144-2.144V2.144A2.147 2.147 0 0 0 15.803 0zM2.438.99h13.365c.637 0 1.155.518 1.155 1.155v24.214H1.284V2.145c0-.637.518-1.155 1.155-1.155zm5.77 27.942a.912.912 0 1 1 1.825 0 .912.912 0 1 1-1.825 0z"/>
      <path fill="#fff" style="fill:var(--color1, #fff)" d="M11.393 3.629H6.847a.495.495 0 1 1 0-.99h4.546a.495.495 0 1 1 0 .99z"/>
      <path fill="#2dcbe0" style="fill:var(--color2, #2dcbe0)" d="M9.12 9.613c-2.356 0-4.272 1.917-4.272 4.272s1.917 4.272 4.272 4.272c2.355 0 4.272-1.917 4.272-4.272S11.475 9.613 9.12 9.613zm1.723 3.642-1.962 1.962a.496.496 0 0 1-.7 0l-.784-.784a.496.496 0 0 1 .7-.7l.435.434 1.612-1.612a.496.496 0 0 1 .7.7z"/>
    </symbol>
    <symbol id="icon-vacuum" viewBox="0 0 39 32">
      <path fill="#2dcbe0" style="fill:var(--color2, #2dcbe0)" d="M5.979 32C2.738 32 0 29.262 0 26.021s2.738-5.979 5.979-5.979 5.979 2.738 5.979 5.979S9.22 32 5.979 32zm0-10.464c-2.431 0-4.484 2.054-4.484 4.484s2.054 4.484 4.484 4.484c2.431 0 4.484-2.054 4.484-4.484s-2.054-4.484-4.484-4.484z"/>
      <path fill="#2dcbe0" style="fill:var(--color2, #2dcbe0)" d="M5.979 28.937c-1.486 0-2.99-1.002-2.99-2.916s1.504-2.916 2.99-2.916 2.99 1.001 2.99 2.916c0 1.914-1.504 2.916-2.99 2.916zm0-4.337c-.69 0-1.495.372-1.495 1.421s.805 1.421 1.495 1.421 1.495-.373 1.495-1.421c0-1.049-.805-1.421-1.495-1.421zM23.942 26.675a.746.746 0 0 1-.747-.747 8.24 8.24 0 0 0-6.049-7.929.748.748 0 1 1 .396-1.442 9.74 9.74 0 0 1 7.147 9.371.745.745 0 0 1-.747.747z"/>
      <path fill="#2dcbe0" style="fill:var(--color2, #2dcbe0)" d="M16.615 17.824a.75.75 0 0 1-.625-1.157c.797-1.218 1.666-2.674 2.068-4.244.215-.837.187-1.415-.081-1.717-.38-.428-1.255-.531-1.957-.614l-.155-.018c-.223-.027-.483-.046-.764-.067-1.725-.126-4.611-.336-4.656-2.93-.046-2.619 2.119-5.182 4.281-6.36 1.679-.915 3.33-.957 4.531-.117a.747.747 0 1 1-.857 1.225c-1.022-.714-2.41-.095-2.959.204-1.723.939-3.536 3.019-3.502 5.021.018 1.032 1.164 1.312 3.271 1.466.306.022.59.043.833.072l.151.018c.904.107 2.143.252 2.901 1.107.931 1.049.54 2.577.41 3.079-.457 1.783-1.401 3.372-2.265 4.692a.744.744 0 0 1-.626.339z"/>
      <path fill="#2dcbe0" style="fill:var(--color2, #2dcbe0)" d="M21.167 5.99a.749.749 0 0 1-.711-.516c-.415-1.276-.93-2.864-2.054-3.647a.747.747 0 1 1 .853-1.226c1.536 1.069 2.164 3.001 2.622 4.411a.747.747 0 0 1-.711.979zM17.345 18.025a.804.804 0 0 1-.198-.026l-7.89-2.162a.748.748 0 1 1 .396-1.442l7.89 2.162a.748.748 0 0 1-.198 1.468z"/>
      <path fill="#2dcbe0" style="fill:var(--color2, #2dcbe0)" d="M9.454 15.863a.763.763 0 0 1-.199-.027 3.72 3.72 0 0 1-1.812-1.131.747.747 0 1 1 1.12-.989c.289.327.666.563 1.09.679a.747.747 0 0 1-.198 1.468z"/>
      <path fill="#2dcbe0" style="fill:var(--color2, #2dcbe0)" d="M8.003 14.957a.745.745 0 0 1-.561-.253 2.234 2.234 0 0 0-2.406-.638c-.389.131-.816-.075-.949-.465s.075-.816.466-.95a3.724 3.724 0 0 1 4.01 1.063.747.747 0 0 1-.56 1.242z"/>
      <path fill="#2dcbe0" style="fill:var(--color2, #2dcbe0)" d="M1.779 16.407a.748.748 0 0 1-.618-1.167 6.767 6.767 0 0 1 3.393-2.588.747.747 0 0 1 .482 1.415 5.253 5.253 0 0 0-2.638 2.013.744.744 0 0 1-.619.328zM.758 26.456l-.046-.001a.747.747 0 0 1-.701-.791l.512-8.549a.747.747 0 1 1 1.492.09l-.512 8.549a.748.748 0 0 1-.745.703z"/>
      <path fill="#2dcbe0" style="fill:var(--color2, #2dcbe0)" d="m1.27 17.907-.046-.001a.747.747 0 0 1-.701-.791c.04-.67.261-1.319.638-1.874a.747.747 0 1 1 1.237.839 2.242 2.242 0 0 0-.383 1.124.746.746 0 0 1-.745.703zM26.931 29.827a.746.746 0 0 1-.747-.747c0-.659.295-1.283.806-1.712a2.239 2.239 0 0 1 1.826-.496.746.746 0 1 1-.259 1.471.752.752 0 0 0-.606.17.743.743 0 0 0-.272.567.746.746 0 0 1-.747.747z"/>
      <path fill="#2dcbe0" style="fill:var(--color2, #2dcbe0)" d="M26.931 32a.746.746 0 0 1-.747-.747V29.08a.746.746 0 1 1 1.494 0v2.173a.746.746 0 0 1-.747.747z"/>
      <path fill="#2dcbe0" style="fill:var(--color2, #2dcbe0)" d="M36.622 32h-9.691a.746.746 0 1 1 0-1.494h9.691a.746.746 0 1 1 0 1.494z"/>
      <path fill="#2dcbe0" style="fill:var(--color2, #2dcbe0)" d="M36.622 32a.746.746 0 0 1-.747-.747v-.988a.746.746 0 1 1 1.494 0v.988a.746.746 0 0 1-.747.747zM35.39 29.54a.734.734 0 0 1-.131-.012l-6.702-1.187a.747.747 0 0 1 .261-1.471l6.702 1.187a.747.747 0 0 1-.13 1.483z"/>
      <path fill="#2dcbe0" style="fill:var(--color2, #2dcbe0)" d="M36.622 31.012a.746.746 0 0 1-.747-.747.744.744 0 0 0-.615-.735.75.75 0 0 1-.608-.865.75.75 0 0 1 .865-.608 2.238 2.238 0 0 1 1.852 2.208.746.746 0 0 1-.747.747zM16.689 31.999a.758.758 0 0 1-.531-.217c-.142-.142-.217-.336-.217-.531s.075-.389.217-.531a.772.772 0 0 1 1.054 0c.142.141.224.336.224.531s-.082.389-.224.531a.753.753 0 0 1-.523.217zM22.447 32h-2.773a.746.746 0 1 1 0-1.494h2.773a.746.746 0 1 1 0 1.494zM13.696 32H5.979a.746.746 0 1 1 0-1.494h7.717a.746.746 0 1 1 0 1.494z"/>
      <path fill="#2dcbe0" style="fill:var(--color2, #2dcbe0)" d="M22.447 32a.746.746 0 1 1 0-1.494c.413 0 .747-.335.747-.747a.747.747 0 0 1 1.494 0 2.245 2.245 0 0 1-2.242 2.242z"/>
      <path fill="#2dcbe0" style="fill:var(--color2, #2dcbe0)" d="M23.942 30.505a.746.746 0 0 1-.747-.747v-3.83a.746.746 0 1 1 1.494 0v3.83a.746.746 0 0 1-.747.747zM28.312 28.336a.749.749 0 0 1-.712-.519L20.455 5.472a.746.746 0 1 1 1.422-.455l7.145 22.345a.746.746 0 0 1-.712.975z"/>
      <path fill="#2dcbe0" style="fill:var(--color2, #2dcbe0)" d="M23.942 27.516H11.158a.746.746 0 1 1 0-1.494h12.784a.746.746 0 1 1 0 1.494z"/>
    </symbol>
    <symbol id="icon-diamond" viewBox="0 0 32 32">
      <path fill="#2dcbe0" style="fill:var(--color2, #2dcbe0);stroke:var(--color2, #2dcbe0)" stroke="#2dcbe0" stroke-linejoin="round" stroke-linecap="round" stroke-miterlimit="10" stroke-width=".4" d="m2.241 26.442-1.564.856 1.564.856.856 1.564.856-1.564 1.564-.856-1.564-.856-.856-1.564-.856 1.564zM5.472 23.692l-.857.469.857.469.469.859.469-.859.859-.469-.859-.469-.469-.857-.469.857zM6.1 29.932l-.859.469.859.469.469.857.469-.857.857-.469-.857-.469-.469-.859-.469.859zM25.668 3.879l-1.564.856 1.564.856.856 1.564.856-1.564 1.564-.856-1.564-.856-.856-1.564-.856 1.564zM28.9 1.129l-.859.469.859.469.469.859.469-.859.857-.469-.857-.469-.469-.857-.469.857zM29.527 7.37l-.859.469.859.469.469.857.469-.857.857-.469-.857-.469-.469-.859-.469.859z"/>
      <path fill="none" stroke="#2dcbe0" style="stroke:var(--color2, #2dcbe0)" stroke-linejoin="round" stroke-linecap="round" stroke-miterlimit="10" stroke-width=".667" d="M23.393 8.455H6.844l-4.32 5.501L15.119 29.08l12.595-15.124-4.32-5.501zM2.524 13.956h25.189"/>
      <path fill="none" stroke="#2dcbe0" style="stroke:var(--color2, #2dcbe0)" stroke-linejoin="round" stroke-linecap="round" stroke-miterlimit="10" stroke-width=".667" d="m6.844 8.455 3.171 5.501 5.104-5.501"/>
      <path fill="none" stroke="#2dcbe0" style="stroke:var(--color2, #2dcbe0)" stroke-linejoin="round" stroke-linecap="round" stroke-miterlimit="10" stroke-width=".667" d="m23.393 8.455-3.171 5.501-5.104-5.501M20.223 13.956 15.119 29.08l-5.104-15.124"/>
    </symbol>
    <symbol id="icon-star" viewBox="0 0 36 32">
      <path d="m18.059 0 3.832 11.793h12.4L24.26 19.081l3.832 11.793-10.032-7.288-10.032 7.288 3.832-11.793-10.032-7.288h12.4L18.06 0z"/>
    </symbol>
    <symbol id="icon-check" viewBox="0 0 37 32">
      <path fill="#2dcbe0" style="fill:var(--color2, #2dcbe0)" d="M16.569 32a.793.793 0 0 1-.585-.256L.212 14.683a.797.797 0 0 1 .585-1.337h7.592c.114 0 .227.024.33.072s.196.116.271.202l5.271 6.064c.57-1.218 1.672-3.245 3.608-5.716C20.73 10.315 26.051 4.944 35.156.094a.795.795 0 0 1 1.16.836.795.795 0 0 1-.296.496c-.035.027-3.545 2.792-7.585 7.855-3.718 4.66-8.661 12.279-11.093 22.115a.799.799 0 0 1-.773.605z"/>
    </symbol>
    <symbol id="icon-chevron-left" viewBox="0 0 26 32">
      <path d="m23.059 7.498-5.431-5.431L3.146 16.549l5.431 5.431L23.059 7.498z"/>
      <path d="m10.422 13.023-5.431 5.431 12.671 12.671 5.431-5.431-12.671-12.671z"/>
    </symbol>
    <symbol id="icon-chevron-right" viewBox="0 0 26 32">
      <path d="m2.541 25.694 5.431 5.431 14.482-14.482-5.431-5.431L2.541 25.694z"/>
      <path d="m15.178 20.169 5.431-5.431L7.938 2.067 2.507 7.498l12.671 12.671z"/>
    </symbol>
  </defs>
</svg>
