<svg width="24" height="24" viewBox="0 0 24 24" fill="none" xmlns="http://www.w3.org/2000/svg">
<g clip-path="url(#clip0_1_117)">
<path d="M1.681 19.8312L0.507996 20.4732L1.681 21.1152L2.323 22.2882L2.965 21.1152L4.138 20.4732L2.965 19.8312L2.323 18.6582L1.681 19.8312Z" fill="#2DCBE0" stroke="#2DCBE0" stroke-width="0.3" stroke-miterlimit="10" stroke-linecap="round" stroke-linejoin="round"/>
<path d="M4.104 17.769L3.461 18.121L4.104 18.473L4.456 19.117L4.808 18.473L5.452 18.121L4.808 17.769L4.456 17.126L4.104 17.769Z" fill="#2DCBE0" stroke="#2DCBE0" stroke-width="0.3" stroke-miterlimit="10" stroke-linecap="round" stroke-linejoin="round"/>
<path d="M4.57497 22.4492L3.93097 22.8012L4.57497 23.1532L4.92697 23.7962L5.27897 23.1532L5.92197 22.8012L5.27897 22.4492L4.92697 21.8052L4.57497 22.4492Z" fill="#2DCBE0" stroke="#2DCBE0" stroke-width="0.3" stroke-miterlimit="10" stroke-linecap="round" stroke-linejoin="round"/>
<path d="M19.251 2.90933L18.078 3.55133L19.251 4.19333L19.893 5.36633L20.535 4.19333L21.708 3.55133L20.535 2.90933L19.893 1.73633L19.251 2.90933Z" fill="#2DCBE0" stroke="#2DCBE0" stroke-width="0.3" stroke-miterlimit="10" stroke-linecap="round" stroke-linejoin="round"/>
<path d="M21.675 0.847102L21.031 1.1991L21.675 1.5511L22.027 2.1951L22.379 1.5511L23.022 1.1991L22.379 0.847102L22.027 0.204102L21.675 0.847102Z" fill="#2DCBE0" stroke="#2DCBE0" stroke-width="0.3" stroke-miterlimit="10" stroke-linecap="round" stroke-linejoin="round"/>
<path d="M22.145 5.5273L21.501 5.8793L22.145 6.2313L22.497 6.8743L22.849 6.2313L23.492 5.8793L22.849 5.5273L22.497 4.8833L22.145 5.5273Z" fill="#2DCBE0" stroke="#2DCBE0" stroke-width="0.3" stroke-miterlimit="10" stroke-linecap="round" stroke-linejoin="round"/>
<path d="M17.545 6.34131H11.339H5.13301L1.89301 10.4673L11.339 21.8103L20.785 10.4673L17.545 6.34131Z" stroke="#2DCBE0" stroke-width="0.5" stroke-miterlimit="10" stroke-linecap="round" stroke-linejoin="round"/>
<path d="M1.89301 10.4673H20.785" stroke="#2DCBE0" stroke-width="0.5" stroke-miterlimit="10" stroke-linecap="round" stroke-linejoin="round"/>
<path d="M5.133 6.34131L7.511 10.4673L11.339 6.34131" stroke="#2DCBE0" stroke-width="0.5" stroke-miterlimit="10" stroke-linecap="round" stroke-linejoin="round"/>
<path d="M17.545 6.34131L15.167 10.4673L11.339 6.34131" stroke="#2DCBE0" stroke-width="0.5" stroke-miterlimit="10" stroke-linecap="round" stroke-linejoin="round"/>
<path d="M15.167 10.4673L11.339 21.8103L7.51099 10.4673" stroke="#2DCBE0" stroke-width="0.5" stroke-miterlimit="10" stroke-linecap="round" stroke-linejoin="round"/>
</g>
<defs>
<clipPath id="clip0_1_117">
<rect width="24" height="24" fill="white"/>
</clipPath>
</defs>
</svg>
