<svg width="37" height="37" viewBox="0 0 37 37" fill="none" xmlns="http://www.w3.org/2000/svg">
<path d="M28.112 6.41452C27.6848 6.41452 27.2672 6.54121 26.912 6.77855C26.5568 7.01589 26.2799 7.35324 26.1164 7.74793C25.9529 8.14262 25.9102 8.57692 25.9935 8.99592C26.0768 9.41492 26.2826 9.79979 26.5847 10.1019C26.8867 10.404 27.2716 10.6097 27.6906 10.693C28.1096 10.7764 28.5439 10.7336 28.9386 10.5701C29.3333 10.4066 29.6706 10.1298 29.908 9.77456C30.1453 9.41934 30.272 9.00173 30.272 8.57452C30.272 8.00166 30.0444 7.45225 29.6393 7.04717C29.2343 6.64209 28.6849 6.41452 28.112 6.41452ZM36.392 10.7705C36.357 9.27706 36.0773 7.79945 35.564 6.39652C35.1063 5.19616 34.394 4.10922 33.476 3.21052C32.5847 2.28789 31.4952 1.58004 30.29 1.14052C28.8908 0.611613 27.4115 0.325501 25.916 0.294523C24.008 0.186523 23.396 0.186523 18.5 0.186523C13.604 0.186523 12.992 0.186523 11.084 0.294523C9.58847 0.325501 8.10922 0.611613 6.71 1.14052C5.50702 1.58449 4.41848 2.29173 3.524 3.21052C2.60137 4.10184 1.89352 5.19131 1.454 6.39652C0.925089 7.79574 0.638978 9.275 0.608 10.7705C0.5 12.6785 0.5 13.2905 0.5 18.1865C0.5 23.0825 0.5 23.6945 0.608 25.6025C0.638978 27.098 0.925089 28.5773 1.454 29.9765C1.89352 31.1817 2.60137 32.2712 3.524 33.1625C4.41848 34.0813 5.50702 34.7886 6.71 35.2325C8.10922 35.7614 9.58847 36.0475 11.084 36.0785C12.992 36.1865 13.604 36.1865 18.5 36.1865C23.396 36.1865 24.008 36.1865 25.916 36.0785C27.4115 36.0475 28.8908 35.7614 30.29 35.2325C31.4952 34.793 32.5847 34.0852 33.476 33.1625C34.398 32.2672 35.111 31.1793 35.564 29.9765C36.0773 28.5736 36.357 27.096 36.392 25.6025C36.392 23.6945 36.5 23.0825 36.5 18.1865C36.5 13.2905 36.5 12.6785 36.392 10.7705ZM33.152 25.3865C33.1389 26.5291 32.932 27.6612 32.54 28.7345C32.2526 29.5179 31.791 30.2257 31.19 30.8045C30.6062 31.3994 29.8998 31.8601 29.12 32.1545C28.0467 32.5465 26.9146 32.7534 25.772 32.7665C23.972 32.8565 23.306 32.8745 18.572 32.8745C13.838 32.8745 13.172 32.8745 11.372 32.7665C10.1856 32.7887 9.00427 32.6061 7.88 32.2265C7.13441 31.9171 6.46044 31.4575 5.9 30.8765C5.30256 30.2983 4.84672 29.5899 4.568 28.8065C4.12854 27.7178 3.8848 26.56 3.848 25.3865C3.848 23.5865 3.74 22.9205 3.74 18.1865C3.74 13.4525 3.74 12.7865 3.848 10.9865C3.85607 9.81842 4.06931 8.66082 4.478 7.56652C4.79488 6.80676 5.28128 6.12951 5.9 5.58652C6.44686 4.96763 7.12272 4.4761 7.88 4.14652C8.97719 3.7506 10.1336 3.54367 11.3 3.53452C13.1 3.53452 13.766 3.42652 18.5 3.42652C23.234 3.42652 23.9 3.42652 25.7 3.53452C26.8426 3.54763 27.9747 3.75457 29.048 4.14652C29.866 4.4501 30.6001 4.94365 31.19 5.58652C31.7799 6.13944 32.2408 6.81544 32.54 7.56652C32.9401 8.6626 33.1471 9.81973 33.152 10.9865C33.242 12.7865 33.26 13.4525 33.26 18.1865C33.26 22.9205 33.242 23.5865 33.152 25.3865ZM18.5 8.95252C16.6745 8.95608 14.8909 9.50067 13.3748 10.5175C11.8586 11.5343 10.6779 12.9777 9.98174 14.6653C9.2856 16.3529 9.1053 18.209 9.46363 19.999C9.82195 21.789 10.7028 23.4327 11.9949 24.7223C13.287 26.0119 14.9324 26.8896 16.7231 27.2444C18.5139 27.5992 20.3696 27.4153 22.0558 26.7159C23.7421 26.0165 25.1832 24.8329 26.197 23.3148C27.2109 21.7967 27.752 20.0121 27.752 18.1865C27.7544 16.9717 27.5166 15.7684 27.0522 14.6458C26.5879 13.5233 25.9062 12.5036 25.0464 11.6454C24.1865 10.7872 23.1655 10.1075 22.042 9.6454C20.9186 9.18325 19.7148 8.94777 18.5 8.95252ZM18.5 24.1805C17.3145 24.1805 16.1556 23.829 15.1699 23.1704C14.1842 22.5117 13.4159 21.5756 12.9623 20.4803C12.5086 19.3851 12.3899 18.1799 12.6212 17.0172C12.8525 15.8544 13.4233 14.7864 14.2616 13.9481C15.0999 13.1098 16.1679 12.539 17.3306 12.3077C18.4934 12.0764 19.6985 12.1951 20.7938 12.6488C21.8891 13.1025 22.8252 13.8707 23.4838 14.8564C24.1425 15.8421 24.494 17.001 24.494 18.1865C24.494 18.9737 24.339 19.7531 24.0377 20.4803C23.7365 21.2076 23.295 21.8683 22.7384 22.4249C22.1818 22.9815 21.521 23.423 20.7938 23.7243C20.0666 24.0255 19.2871 24.1805 18.5 24.1805Z" fill="white"/>
</svg>
