<svg width="29" height="40" viewBox="0 0 29 40" fill="none" xmlns="http://www.w3.org/2000/svg">
<path d="M14.4999 0.312538C6.68696 0.312538 0.330627 6.66887 0.330627 14.4819C0.330627 20.8375 4.63563 26.592 8.79883 32.1571C10.6288 34.6033 12.3573 36.9139 13.6881 39.2188C13.8556 39.5089 14.165 39.6875 14.5 39.6875C14.835 39.6875 15.1445 39.5089 15.312 39.2188C16.6427 36.9139 18.3712 34.6033 20.2012 32.1571C24.3644 26.592 28.6694 20.8374 28.6694 14.4819C28.6692 6.66887 22.3129 0.312538 14.4999 0.312538ZM18.6997 31.0339C17.1827 33.0618 15.734 34.9983 14.4999 36.9432C13.2659 34.9983 11.8172 33.0618 10.3002 31.0339C6.32063 25.7143 2.20563 20.2136 2.20563 14.4818C2.20563 7.70277 7.72086 2.18754 14.4999 2.18754C21.279 2.18754 26.7942 7.70277 26.7942 14.4819C26.7942 20.2137 22.6792 25.7143 18.6997 31.0339ZM14.4999 5.98824C9.81657 5.98824 6.00633 9.79848 6.00633 14.4818C6.00633 19.1652 9.81657 22.9754 14.4999 22.9754C19.1833 22.9754 22.9936 19.1652 22.9936 14.4818C22.9936 9.79848 19.1833 5.98824 14.4999 5.98824ZM14.4999 21.1004C10.8504 21.1004 7.88133 18.1314 7.88133 14.4818C7.88133 10.8323 10.8504 7.86324 14.4999 7.86324C18.1495 7.86324 21.1186 10.8323 21.1186 14.4818C21.1186 18.1314 18.1495 21.1004 14.4999 21.1004Z" fill="white"/>
</svg>
