<svg width="29" height="24" viewBox="0 0 29 24" fill="none" xmlns="http://www.w3.org/2000/svg">
<path d="M4.48434 23.9999C2.05383 23.9999 0 21.9467 0 19.5156C0 17.0845 2.05383 15.0312 4.48434 15.0312C6.91485 15.0312 8.96867 17.0845 8.96867 19.5156C8.96867 21.9467 6.91485 23.9999 4.48434 23.9999ZM4.48434 16.1523C2.66145 16.1523 1.12108 17.6927 1.12108 19.5156C1.12108 21.3385 2.66145 22.8788 4.48434 22.8788C6.30722 22.8788 7.84759 21.3385 7.84759 19.5156C7.84759 17.6927 6.30722 16.1523 4.48434 16.1523Z" fill="#2DCBE0"/>
<path d="M4.48436 21.703C3.37 21.703 2.24219 20.9513 2.24219 19.5158C2.24219 18.0802 3.37 17.3291 4.48436 17.3291C5.59871 17.3291 6.72652 18.0802 6.72652 19.5158C6.72652 20.9513 5.59871 21.703 4.48436 21.703ZM4.48436 18.4502C3.96698 18.4502 3.36327 18.7293 3.36327 19.5158C3.36327 20.3022 3.96698 20.5819 4.48436 20.5819C5.00174 20.5819 5.60544 20.3022 5.60544 19.5158C5.60544 18.7293 5.00174 18.4502 4.48436 18.4502Z" fill="#2DCBE0"/>
<path d="M17.9564 20.0064C17.6464 20.0064 17.3959 19.7558 17.3959 19.4458C17.3959 16.6768 15.5304 14.2306 12.8594 13.499C12.5612 13.4172 12.3852 13.1089 12.467 12.8101C12.5489 12.5114 12.8555 12.3382 13.1559 12.4178C16.3123 13.2838 18.5164 16.1734 18.5164 19.4464C18.517 19.7558 18.2664 20.0064 17.9564 20.0064Z" fill="#2DCBE0"/>
<path d="M12.4609 13.3682C12.3555 13.3682 12.2495 13.3385 12.1548 13.2768C11.8958 13.107 11.823 12.76 11.9923 12.5005C12.5898 11.5873 13.2417 10.4949 13.5433 9.31715C13.7042 8.68935 13.6834 8.25605 13.4827 8.02903C13.1974 7.70784 12.5416 7.63048 12.0147 7.56882L11.8986 7.55537C11.731 7.53519 11.5365 7.52062 11.3258 7.50548C10.032 7.41131 7.86723 7.25324 7.8336 5.30816C7.79941 3.34402 9.42274 1.42192 11.0444 0.538505C12.3034 -0.147599 13.5422 -0.17955 14.4429 0.45106C14.6963 0.628191 14.7585 0.977409 14.5808 1.2319C14.4043 1.48582 14.0551 1.54748 13.8 1.36979C13.0337 0.834471 11.9923 1.2986 11.5808 1.52282C10.2882 2.22742 8.9289 3.78685 8.95468 5.28854C8.96814 6.06265 9.82745 6.27229 11.4076 6.38776C11.6369 6.40402 11.8499 6.42027 12.0326 6.44213L12.1458 6.45559C12.8241 6.53574 13.7529 6.64449 14.3213 7.28575C15.0192 8.07219 14.726 9.2185 14.629 9.59518C14.2866 10.9321 13.578 12.1243 12.9306 13.1143C12.823 13.2791 12.6442 13.3682 12.4609 13.3682Z" fill="#2DCBE0"/>
<path d="M15.8751 4.49252C15.6386 4.49252 15.4194 4.34173 15.342 4.10519C15.0309 3.14834 14.6442 1.95719 13.8017 1.3703C13.5477 1.19373 13.485 0.844512 13.6615 0.590026C13.8381 0.33554 14.1873 0.272199 14.4418 0.450451C15.5937 1.25203 16.0646 2.70103 16.4082 3.75877C16.504 4.05249 16.3426 4.3692 16.0478 4.46505C15.9906 4.48411 15.9329 4.49252 15.8751 4.49252Z" fill="#2DCBE0"/>
<path d="M13.0085 13.5184C12.9597 13.5184 12.9099 13.5116 12.86 13.4987L6.94233 11.8771C6.64356 11.7953 6.46811 11.487 6.54995 11.1882C6.63178 10.8905 6.93952 10.7157 7.23885 10.7958L13.1565 12.4175C13.4553 12.4993 13.6307 12.8076 13.5489 13.1064C13.4805 13.3547 13.2546 13.5184 13.0085 13.5184Z" fill="#2DCBE0"/>
<path d="M7.09083 11.8969C7.0415 11.8969 6.99161 11.8902 6.94172 11.8767C6.41369 11.731 5.9434 11.4384 5.58241 11.0286C5.37725 10.7966 5.39967 10.4423 5.63117 10.2371C5.86436 10.0326 6.2175 10.055 6.42266 10.2865C6.63959 10.532 6.9221 10.7086 7.23993 10.796C7.5387 10.8778 7.71359 11.1867 7.63119 11.4849C7.56224 11.7338 7.3369 11.8969 7.09083 11.8969Z" fill="#2DCBE0"/>
<path d="M6.00227 11.218C5.847 11.218 5.69285 11.1541 5.58186 11.0285C5.12951 10.5167 4.4221 10.3284 3.77748 10.5498C3.48544 10.6479 3.16537 10.4937 3.06559 10.2011C2.96525 9.90853 3.12165 9.58902 3.41481 9.48869C4.48881 9.12041 5.66931 9.43319 6.42212 10.2863C6.62728 10.5184 6.60485 10.8727 6.37335 11.0778C6.26685 11.172 6.134 11.218 6.00227 11.218Z" fill="#2DCBE0"/>
<path d="M1.3341 12.3054C1.22592 12.3054 1.11605 12.274 1.01964 12.2084C0.763471 12.0346 0.696767 11.686 0.870535 11.4298C1.48153 10.5296 2.38568 9.83955 3.4154 9.48865C3.70744 9.38607 4.02695 9.54583 4.12672 9.83787C4.2265 10.131 4.07011 10.45 3.77694 10.5498C2.97593 10.8227 2.27301 11.3592 1.79823 12.0593C1.69005 12.2196 1.51348 12.3054 1.3341 12.3054Z" fill="#2DCBE0"/>
<path d="M0.568386 19.842C0.557175 19.842 0.545404 19.8414 0.534193 19.8409C0.225335 19.8224 -0.0100931 19.5567 0.0084048 19.2478L0.392376 12.8358C0.410874 12.5264 0.670405 12.2926 0.98543 12.31C1.29429 12.3285 1.52972 12.5942 1.51122 12.903L1.12725 19.3151C1.10931 19.6127 0.862671 19.842 0.568386 19.842Z" fill="#2DCBE0"/>
<path d="M0.952359 13.4302C0.941148 13.4302 0.929376 13.4296 0.918165 13.4291C0.609307 13.4106 0.373879 13.1449 0.392377 12.836C0.422646 12.3332 0.588006 11.8466 0.87052 11.4302C1.04485 11.174 1.39294 11.1067 1.64911 11.2811C1.90528 11.4548 1.97198 11.8035 1.79822 12.0597C1.62837 12.3097 1.52916 12.6011 1.51122 12.9027C1.49384 13.2009 1.24664 13.4302 0.952359 13.4302Z" fill="#2DCBE0"/>
<path d="M20.1985 22.3703C19.8886 22.3703 19.638 22.1198 19.638 21.8098C19.638 21.3159 19.8589 20.8479 20.2428 20.5256C20.6279 20.2033 21.1296 20.0682 21.6122 20.1534C21.9172 20.2072 22.1206 20.4976 22.0668 20.8025C22.013 21.1074 21.7215 21.3109 21.4177 21.2571C21.2602 21.2302 21.0937 21.2756 20.9631 21.3849C20.8336 21.4936 20.7591 21.6489 20.7591 21.8103C20.7591 22.1198 20.5085 22.3703 20.1985 22.3703Z" fill="#2DCBE0"/>
<path d="M20.1985 24.0002C19.8886 24.0002 19.638 23.7496 19.638 23.4396V21.8096C19.638 21.4996 19.8886 21.249 20.1985 21.249C20.5085 21.249 20.7591 21.4996 20.7591 21.8096V23.4396C20.7591 23.7496 20.5085 24.0002 20.1985 24.0002Z" fill="#2DCBE0"/>
<path d="M27.4665 24H20.1985C19.8886 24 19.638 23.7494 19.638 23.4394C19.638 23.1295 19.8886 22.8789 20.1985 22.8789H27.4665C27.7765 22.8789 28.0271 23.1295 28.0271 23.4394C28.0271 23.7494 27.7765 24 27.4665 24Z" fill="#2DCBE0"/>
<path d="M27.4665 24.0003C27.1566 24.0003 26.906 23.7497 26.906 23.4398V22.6987C26.906 22.3887 27.1566 22.1382 27.4665 22.1382C27.7765 22.1382 28.0271 22.3887 28.0271 22.6987V23.4398C28.0271 23.7497 27.7765 24.0003 27.4665 24.0003Z" fill="#2DCBE0"/>
<path d="M26.5422 22.1551C26.5097 22.1551 26.4772 22.1523 26.4436 22.1462L21.4172 21.256C21.1128 21.2022 20.9093 20.9113 20.9632 20.6064C21.0175 20.302 21.3045 20.098 21.6128 20.1523L26.6392 21.0425C26.9436 21.0963 27.1471 21.3872 27.0932 21.6921C27.045 21.964 26.8085 22.1551 26.5422 22.1551Z" fill="#2DCBE0"/>
<path d="M27.4665 23.2591C27.1566 23.2591 26.906 23.0085 26.906 22.6985C26.906 22.4261 26.7115 22.194 26.4447 22.1475C26.1397 22.0937 25.9363 21.8033 25.989 21.4984C26.0428 21.1935 26.332 20.9911 26.6381 21.0427C27.443 21.1845 28.0271 21.8807 28.0271 22.6985C28.0271 23.0085 27.7765 23.2591 27.4665 23.2591Z" fill="#2DCBE0"/>
<path d="M12.5169 23.9993C12.3656 23.9993 12.2198 23.9377 12.1189 23.8368C12.0124 23.7303 11.9564 23.5845 11.9564 23.4388C11.9564 23.2925 12.0124 23.1467 12.1189 23.0408C12.3263 22.8334 12.7019 22.8334 12.9093 23.0408C13.0158 23.1467 13.0774 23.2925 13.0774 23.4388C13.0774 23.5845 13.0158 23.7303 12.9093 23.8368C12.8084 23.9377 12.6626 23.9993 12.5169 23.9993Z" fill="#2DCBE0"/>
<path d="M16.8353 24H14.7557C14.4463 24 14.1952 23.7494 14.1952 23.4394C14.1952 23.1295 14.4463 22.8789 14.7557 22.8789H16.8353C17.1453 22.8789 17.3959 23.1295 17.3959 23.4394C17.3959 23.7494 17.1453 24 16.8353 24Z" fill="#2DCBE0"/>
<path d="M10.2719 24H4.48431C4.17489 24 3.92377 23.7494 3.92377 23.4394C3.92377 23.1295 4.17489 22.8789 4.48431 22.8789H10.2719C10.5813 22.8789 10.8324 23.1295 10.8324 23.4394C10.8324 23.7494 10.5813 24 10.2719 24Z" fill="#2DCBE0"/>
<path d="M16.8353 24C16.5253 24 16.2748 23.7494 16.2748 23.4394C16.2748 23.1295 16.5253 22.8789 16.8353 22.8789C17.1447 22.8789 17.3959 22.6278 17.3959 22.3184C17.3959 22.0084 17.6464 21.7578 17.9564 21.7578C18.2664 21.7578 18.5169 22.0084 18.5169 22.3184C18.5169 23.2455 17.7625 24 16.8353 24Z" fill="#2DCBE0"/>
<path d="M17.9564 22.8791C17.6464 22.8791 17.3959 22.6286 17.3959 22.3186V19.4458C17.3959 19.1358 17.6464 18.8853 17.9564 18.8853C18.2664 18.8853 18.517 19.1358 18.517 19.4458V22.3186C18.517 22.6286 18.2664 22.8791 17.9564 22.8791Z" fill="#2DCBE0"/>
<path d="M21.2339 21.2521C20.9962 21.2521 20.7765 21.1002 20.7002 20.8626L15.3415 4.10349C15.2467 3.80864 15.4093 3.49306 15.7041 3.39889C16.0001 3.30191 16.3146 3.46727 16.4087 3.76156L21.7675 20.5206C21.8622 20.8155 21.6997 21.1311 21.4048 21.2252C21.3477 21.2437 21.2899 21.2521 21.2339 21.2521Z" fill="#2DCBE0"/>
<path d="M17.9564 20.6367H8.36834C8.05892 20.6367 7.8078 20.3861 7.8078 20.0762C7.8078 19.7662 8.05892 19.5156 8.36834 19.5156H17.9564C18.2664 19.5156 18.517 19.7662 18.517 20.0762C18.517 20.3861 18.2664 20.6367 17.9564 20.6367Z" fill="#2DCBE0"/>
</svg>
