<svg width="18" height="19" viewBox="0 0 18 19" fill="none" xmlns="http://www.w3.org/2000/svg">
<path d="M3.00012 5.93652C3.00012 5.5387 3.15816 5.15717 3.43946 4.87586C3.72077 4.59456 4.1023 4.43652 4.50012 4.43652H13.5001C13.8979 4.43652 14.2795 4.59456 14.5608 4.87586C14.8421 5.15717 15.0001 5.5387 15.0001 5.93652V14.9365C15.0001 15.3343 14.8421 15.7159 14.5608 15.9972C14.2795 16.2785 13.8979 16.4365 13.5001 16.4365H4.50012C4.1023 16.4365 3.72077 16.2785 3.43946 15.9972C3.15816 15.7159 3.00012 15.3343 3.00012 14.9365V5.93652Z" stroke="white" stroke-width="1.5" stroke-linecap="round" stroke-linejoin="round"/>
<path d="M12.0001 2.93652V5.93652" stroke="white" stroke-width="1.5" stroke-linecap="round" stroke-linejoin="round"/>
<path d="M5.99988 2.93652V5.93652" stroke="white" stroke-width="1.5" stroke-linecap="round" stroke-linejoin="round"/>
<path d="M3.00012 8.93652H15.0001" stroke="white" stroke-width="1.5" stroke-linecap="round" stroke-linejoin="round"/>
<path d="M8.24988 11.9365H8.99988" stroke="white" stroke-width="1.5" stroke-linecap="round" stroke-linejoin="round"/>
<path d="M9 11.9365V14.1865" stroke="white" stroke-width="1.5" stroke-linecap="round" stroke-linejoin="round"/>
</svg>
