<svg width="20" height="10" viewBox="0 0 20 10" fill="none" xmlns="http://www.w3.org/2000/svg">
<path d="M0.405386 9.58763C0.534985 9.7183 0.689171 9.82201 0.859053 9.89279C1.02894 9.96356 1.21115 10 1.39519 10C1.57922 10 1.76144 9.96356 1.93132 9.89279C2.1012 9.82201 2.25539 9.7183 2.38499 9.58763L8.7699 3.20272C8.8995 3.07205 9.05369 2.96834 9.22357 2.89757C9.39345 2.82679 9.57567 2.79035 9.7597 2.79035C9.94374 2.79035 10.126 2.82679 10.2958 2.89757C10.4657 2.96834 10.6199 3.07205 10.7495 3.20272L17.1344 9.58763C17.264 9.7183 17.4182 9.82201 17.5881 9.89279C17.758 9.96356 17.9402 10 18.1242 10C18.3083 10 18.4905 9.96356 18.6604 9.89279C18.8302 9.82201 18.9844 9.7183 19.114 9.58763C19.3737 9.32643 19.5194 8.9731 19.5194 8.6048C19.5194 8.2365 19.3737 7.88317 19.114 7.62197L12.7152 1.22312C11.931 0.439916 10.868 7.5633e-07 9.7597 8.53221e-07C8.6514 9.50111e-07 7.58841 0.439917 6.80424 1.22312L0.405386 7.62197C0.145737 7.88317 -5.87622e-06 8.23651 -5.84402e-06 8.6048C-5.81182e-06 8.9731 0.145737 9.32643 0.405386 9.58763Z" fill="#2DCBE0"/>
</svg>
