<svg width="12" height="13" viewBox="0 0 12 13" fill="none" xmlns="http://www.w3.org/2000/svg">
<path d="M7.40994 6.50019L11.7099 2.21019C11.8982 2.02188 12.004 1.76649 12.004 1.50019C12.004 1.23388 11.8982 0.978489 11.7099 0.790185C11.5216 0.601882 11.2662 0.496094 10.9999 0.496094C10.7336 0.496094 10.4782 0.601882 10.2899 0.790185L5.99994 5.09019L1.70994 0.790185C1.52164 0.601882 1.26624 0.496094 0.999939 0.496094C0.733637 0.496094 0.478243 0.601882 0.289939 0.790185C0.101635 0.978489 -0.00415277 1.23388 -0.00415277 1.50019C-0.00415278 1.76649 0.101635 2.02188 0.289939 2.21019L4.58994 6.50019L0.289939 10.7902C0.196211 10.8831 0.121816 10.9937 0.0710478 11.1156C0.0202791 11.2375 -0.00585938 11.3682 -0.00585938 11.5002C-0.00585938 11.6322 0.0202791 11.7629 0.0710478 11.8848C0.121816 12.0066 0.196211 12.1172 0.289939 12.2102C0.382902 12.3039 0.493503 12.3783 0.615362 12.4291C0.737221 12.4798 0.867927 12.506 0.999939 12.506C1.13195 12.506 1.26266 12.4798 1.38452 12.4291C1.50638 12.3783 1.61698 12.3039 1.70994 12.2102L5.99994 7.91019L10.2899 12.2102C10.3829 12.3039 10.4935 12.3783 10.6154 12.4291C10.7372 12.4798 10.8679 12.506 10.9999 12.506C11.132 12.506 11.2627 12.4798 11.3845 12.4291C11.5064 12.3783 11.617 12.3039 11.7099 12.2102C11.8037 12.1172 11.8781 12.0066 11.9288 11.8848C11.9796 11.7629 12.0057 11.6322 12.0057 11.5002C12.0057 11.3682 11.9796 11.2375 11.9288 11.1156C11.8781 10.9937 11.8037 10.8831 11.7099 10.7902L7.40994 6.50019Z" fill="#141414"/>
</svg>
