<svg width="18" height="19" viewBox="0 0 18 19" fill="none" xmlns="http://www.w3.org/2000/svg">
<g clip-path="url(#clip0_1_655)">
<path d="M2.25 5.9375C2.25 5.53968 2.40804 5.15814 2.68934 4.87684C2.97064 4.59554 3.35218 4.4375 3.75 4.4375H14.25C14.6478 4.4375 15.0294 4.59554 15.3107 4.87684C15.592 5.15814 15.75 5.53968 15.75 5.9375V13.4375C15.75 13.8353 15.592 14.2169 15.3107 14.4982C15.0294 14.7795 14.6478 14.9375 14.25 14.9375H3.75C3.35218 14.9375 2.97064 14.7795 2.68934 14.4982C2.40804 14.2169 2.25 13.8353 2.25 13.4375V5.9375Z" stroke="white" stroke-width="1.5" stroke-linecap="round" stroke-linejoin="round"/>
<path d="M2.25 5.9375L9 10.4375L15.75 5.9375" stroke="white" stroke-width="1.5" stroke-linecap="round" stroke-linejoin="round"/>
</g>
<defs>
<clipPath id="clip0_1_655">
<rect width="18" height="18" fill="white" transform="translate(0 0.686523)"/>
</clipPath>
</defs>
</svg>
