<svg width="18" height="19" viewBox="0 0 18 19" fill="none" xmlns="http://www.w3.org/2000/svg">
<g clip-path="url(#clip0_1_648)">
<path d="M13.05 17.1876C9.98797 17.1836 7.05249 15.9655 4.8873 13.8003C2.72211 11.6351 1.50397 8.69962 1.5 5.63759C1.5 4.72259 1.86348 3.84507 2.51048 3.19807C3.15748 2.55107 4.035 2.18759 4.95 2.18759C5.14376 2.18611 5.33719 2.20369 5.5275 2.24009C5.71148 2.26731 5.89235 2.31253 6.0675 2.37509C6.19069 2.41831 6.30046 2.49294 6.38596 2.59159C6.47146 2.69024 6.52973 2.80951 6.555 2.93759L7.5825 7.43759C7.6102 7.55973 7.60686 7.68687 7.5728 7.8074C7.53874 7.92793 7.47503 8.038 7.3875 8.12759C7.29 8.23259 7.2825 8.24009 6.36 8.72009C7.09875 10.3407 8.3949 11.6422 10.0125 12.3876C10.5 11.4576 10.5075 11.4501 10.6125 11.3526C10.7021 11.2651 10.8122 11.2013 10.9327 11.1673C11.0532 11.1332 11.1804 11.1299 11.3025 11.1576L15.8025 12.1851C15.9265 12.2139 16.0411 12.2737 16.1356 12.359C16.23 12.4443 16.3012 12.5522 16.3425 12.6726C16.4058 12.8506 16.4535 13.0338 16.485 13.2201C16.5152 13.4086 16.5302 13.5992 16.53 13.7901C16.5162 14.7012 16.1425 15.5698 15.4905 16.2063C14.8385 16.8429 13.9612 17.1956 13.05 17.1876Z" fill="white"/>
</g>
<defs>
<clipPath id="clip0_1_648">
<rect width="18" height="18" fill="white" transform="translate(0 0.686523)"/>
</clipPath>
</defs>
</svg>
