<svg width="57" height="100" viewBox="0 0 57 100" fill="none" xmlns="http://www.w3.org/2000/svg">
<path d="M49.3828 0.000244141H7.6172C3.92233 0.000244141 0.916168 3.00641 0.916168 6.70127V93.2992C0.916168 96.9941 3.92233 100 7.6172 100H49.3828C53.0777 100 56.0838 96.9941 56.0838 93.2992V6.70127C56.0838 3.00661 53.0777 0.000244141 49.3828 0.000244141ZM7.6172 3.09313H49.3828C51.3721 3.09313 52.9912 4.71194 52.9912 6.70147V82.3715H4.00886V6.70127C4.00886 4.71194 5.62787 3.09313 7.6172 3.09313ZM25.6493 90.4128C25.6493 88.8354 26.9173 87.557 28.5051 87.557C30.0825 87.557 31.3505 88.8354 31.3505 90.4128C31.3505 91.99 30.0825 93.2684 28.5051 93.2684C26.9173 93.2684 25.6493 91.99 25.6493 90.4128Z" fill="white"/>
<path d="M35.6023 11.34H21.3963C20.5419 11.34 19.8499 10.6478 19.8499 9.79366C19.8499 8.93953 20.5421 8.24731 21.3963 8.24731H35.6023C36.4566 8.24731 37.1486 8.93953 37.1486 9.79366C37.1486 10.6478 36.4566 11.34 35.6023 11.34Z" fill="white"/>
<path d="M28.5001 30.0413C21.1392 30.0413 15.1496 36.0309 15.1496 43.3918C15.1496 50.7526 21.1392 56.7423 28.5001 56.7423C35.8609 56.7423 41.8506 50.7526 41.8506 43.3918C41.8506 36.0309 35.8609 30.0413 28.5001 30.0413ZM33.8842 41.4204L27.7541 47.5505C27.15 48.1546 26.1715 48.1546 25.5675 47.5505L23.1161 45.0994C22.5119 44.4959 22.5119 43.5168 23.1161 42.9128C23.7192 42.3087 24.6988 42.3087 25.3027 42.9128L26.6607 44.2705L31.6976 39.2336C32.3018 38.6295 33.2803 38.6295 33.8842 39.2336C34.4884 39.8371 34.4884 40.8169 33.8842 41.4204Z" fill="#2DCBE0"/>
</svg>
