<svg width="53" height="52" viewBox="0 0 53 52" fill="none" xmlns="http://www.w3.org/2000/svg">
<g clip-path="url(#clip0_1_1130)">
<circle cx="26.5489" cy="26.1024" r="17.6829" fill="white"/>
<path d="M26.5 0.453125C12.3264 0.453125 0.900024 11.8795 0.900024 26.0531C0.900024 40.2268 12.3264 51.6531 26.5 51.6531C40.6737 51.6531 52.1 40.2268 52.1 26.0531C52.1 11.8795 40.6737 0.453125 26.5 0.453125ZM37.8639 27.2395L20.8181 37.2297C20.6308 37.3546 20.3186 37.417 20.1312 37.417C19.9439 37.417 19.6317 37.3546 19.4444 37.2297C19.0073 36.9175 18.7576 36.5429 18.7576 36.0434V16.1253H18.6951C18.6951 15.6258 19.0073 15.1263 19.382 14.939C19.7566 14.7517 20.381 14.6268 20.8181 14.939L37.8639 24.8668C38.301 25.179 38.5508 25.5536 38.5508 26.0531C38.5508 26.5526 38.2386 27.0521 37.8639 27.2395Z" fill="#2DCBE0"/>
</g>
<defs>
<clipPath id="clip0_1_1130">
<rect width="51.2" height="51.2" fill="white" transform="translate(0.900024 0.399902)"/>
</clipPath>
</defs>
</svg>
