<svg width="35" height="40" viewBox="0 0 35 40" fill="none" xmlns="http://www.w3.org/2000/svg">
<path d="M17.5 -6.10352e-05L0.414368 6.21379V20.025C0.414368 35.6312 16.9939 39.8762 17.1608 39.9179L17.5 39.9999L17.8393 39.9179C18.0061 39.8762 34.5857 35.6312 34.5857 20.025V6.21379L17.5 -6.10352e-05ZM31.7381 20.025C31.7381 32.3818 19.765 36.4085 17.5056 37.0578C15.3268 36.4126 3.26198 32.2761 3.26198 20.025V8.20767L17.5 3.03108L31.7381 8.20767V20.025Z" fill="white"/>
<path d="M9.96388 19.0183L7.95053 21.0317L14.6524 27.7336L27.0495 15.3365L25.0362 13.3231L14.6524 23.7069L9.96388 19.0183Z" fill="white"/>
</svg>
