<svg width="41" height="40" viewBox="0 0 41 40" fill="none" xmlns="http://www.w3.org/2000/svg">
<g clip-path="url(#clip0_1_496)">
<path d="M20.5 -6.10352e-05C9.47201 -6.10352e-05 0.5 8.97195 0.5 19.9999C0.5 31.0279 9.47201 39.9999 20.5 39.9999C31.528 39.9999 40.5 31.0279 40.5 19.9999C40.5 8.97195 31.5281 -6.10352e-05 20.5 -6.10352e-05ZM20.5 37.8377C15.6005 37.8377 11.1562 35.8518 7.92929 32.6431C6.64062 31.3617 5.54669 29.8849 4.69492 28.2619C3.39761 25.7904 2.66219 22.9796 2.66219 19.9999C2.66219 10.1641 10.6642 2.16213 20.5 2.16213C25.1653 2.16213 29.4173 3.96324 32.5992 6.90571C34.249 8.43113 35.6113 10.2631 36.5936 12.3106C37.7112 14.6403 38.3378 17.2483 38.3378 19.9999C38.3378 29.8357 30.3358 37.8377 20.5 37.8377Z" fill="white"/>
<path d="M13.9686 17.7026C15.1627 17.7026 16.1307 16.7345 16.1307 15.5404C16.1307 14.3462 15.1627 13.3782 13.9686 13.3782C12.7744 13.3782 11.8064 14.3462 11.8064 15.5404C11.8064 16.7345 12.7744 17.7026 13.9686 17.7026Z" fill="white"/>
<path d="M27.3471 17.7026C28.5413 17.7026 29.5093 16.7345 29.5093 15.5404C29.5093 14.3462 28.5413 13.3782 27.3471 13.3782C26.153 13.3782 25.1849 14.3462 25.1849 15.5404C25.1849 16.7345 26.153 17.7026 27.3471 17.7026Z" fill="white"/>
<path d="M20.4618 31.0807C24.6448 31.0807 28.6536 28.9415 30.9489 25.3897L29.1328 24.2162C27.0251 27.4777 23.1698 29.2979 19.3093 28.8525C16.3009 28.5056 13.5188 26.7723 11.8671 24.2162L10.0511 25.3897C12.0498 28.4829 15.4182 30.5802 19.0615 31.0005C19.5292 31.0544 19.9962 31.0807 20.4618 31.0807Z" fill="white"/>
</g>
<defs>
<clipPath id="clip0_1_496">
<rect width="40" height="40" fill="white" transform="translate(0.5 -6.10352e-05)"/>
</clipPath>
</defs>
</svg>
