<svg width="25" height="24" viewBox="0 0 25 24" fill="none" xmlns="http://www.w3.org/2000/svg">
<path d="M24.6449 7.45589C24.0303 5.68531 22.7851 4.48953 21.3132 4.25854C19.3149 3.94482 18.4865 2.91664 17.6829 1.70474C16.2862 -0.397821 12.585 -0.250631 11.0357 0.528294L10.5447 0.781847C9.47033 1.34482 8.35835 1.92499 6.80694 1.69077C3.91149 1.24705 1.9067 1.66069 0.848441 2.92201C-0.764201 4.84622 0.32307 8.03928 0.846293 9.57349L0.893565 9.71531C1.54786 11.6417 1.26637 12.4689 0.800094 13.8398C0.638937 14.3126 0.46059 14.8379 0.295136 15.4697C-0.156103 17.2091 0.0190212 18.6155 0.81621 19.6436C1.75844 20.8652 3.50645 21.483 6.00976 21.483H8.65917C8.74727 22.1136 8.7 22.5692 8.69893 22.5778L8.65703 22.9065L8.93529 23.0838C8.99331 23.1214 10.3857 24.0002 12.455 24.0002C14.5221 24.0002 15.9273 23.1236 15.9854 23.0849L16.2303 22.9302L16.225 22.3618C16.2217 22.0771 16.2185 21.7849 16.2239 21.4841H17.8859C20.949 21.4841 21.2595 19.7607 21.5893 17.9343C21.844 16.5333 22.1308 14.9465 23.5673 13.3983C25.2508 11.5837 25.2272 9.13944 24.6449 7.45589ZM12.456 22.957C11.1829 22.957 10.202 22.5627 9.75719 22.3457C9.77545 21.714 9.69595 20.3699 8.89231 19.086C8.4819 18.4296 8.05537 17.959 7.71157 17.583C7.17438 16.9942 6.91761 16.688 6.92298 16.1734C6.93802 15.0367 6.461 13.5358 5.77984 12.5388C5.84323 12.5098 5.941 12.4797 6.07852 12.4797C6.29554 12.4797 6.85637 12.5678 7.35166 13.3768C7.81364 14.1332 8.16818 14.4404 8.57645 14.4404C8.7881 14.4394 8.98149 14.347 9.12331 14.1794C9.25868 14.0182 9.67124 13.5272 9.17165 10.7123C8.99975 9.74539 8.59686 7.48167 9.02554 6.90366C9.06422 6.85209 9.09322 6.83919 9.17595 6.83275C9.44884 6.83275 9.69917 7.35275 9.77653 7.63961L10.1633 9.74754L11.1883 9.55845L10.7993 7.4344C10.7048 6.72746 10.8219 5.94639 11.1195 5.90126C11.6116 5.90126 11.8426 6.90473 11.8769 7.17333L12.3636 9.74861L13.3875 9.55415L12.9126 7.04762C12.903 6.89291 12.9352 6.64366 13.0244 6.54804C13.0373 6.53192 13.0673 6.50076 13.1834 6.50076C13.7657 6.50936 13.9913 7.75134 14.0332 8.48299L14.2545 10.2332L15.2881 10.101L15.0764 8.4325C15.0818 8.17465 15.1441 8.06076 15.2054 8.0468C16.0606 8.10804 16.8105 11.43 16.8169 13.0362C16.8169 13.1759 16.8212 13.3177 16.8255 13.4649C16.8535 14.4576 16.8889 15.691 15.8049 18.2265C15.1613 19.7274 15.1721 21.1703 15.186 22.335C14.7445 22.552 13.7464 22.957 12.456 22.957ZM22.8055 12.6903C21.1617 14.4598 20.8319 16.2841 20.5665 17.7484C20.2421 19.5416 20.0787 20.4419 17.887 20.4419H16.2991C16.3678 19.8553 16.4989 19.2526 16.7611 18.6369C17.9343 15.8919 17.8956 14.4737 17.8645 13.437L17.8569 13.0341C17.8569 12.975 17.5636 7.1701 15.186 7.0068C15.0743 7.0068 14.9615 7.02291 14.8508 7.05514C14.5511 6.03878 13.972 5.47258 13.1716 5.46292C12.8954 5.46292 12.6473 5.53597 12.4431 5.67994C12.1165 5.15672 11.6148 4.75812 10.8466 4.88597C10.2557 4.99019 9.96777 5.45432 9.8324 5.97324C9.64223 5.86151 9.42413 5.79275 9.17488 5.79275L9.01372 5.80242C8.67744 5.84217 8.3938 6.0087 8.18752 6.28589C7.54397 7.15291 7.80075 8.96002 8.14455 10.896C8.33041 11.9425 8.37554 12.6236 8.36802 13.0351C8.33041 12.9771 8.28744 12.9116 8.24017 12.8342C7.6976 11.9479 6.91116 11.4397 6.07852 11.4397C5.49298 11.4397 4.9805 11.704 4.77315 12.1155C4.61951 12.4163 4.65174 12.7622 4.85372 13.0362C5.45215 13.8517 5.89372 15.1946 5.8819 16.1605C5.86901 17.1081 6.36645 17.6528 6.94124 18.2845C7.27323 18.6488 7.64818 19.0613 8.0081 19.6383C8.1757 19.9047 8.29496 20.1755 8.39273 20.4419H6.00868C3.84381 20.4419 2.37406 19.9595 1.63918 19.0076C1.04935 18.2469 0.93654 17.1446 1.3029 15.7329C1.45976 15.128 1.62951 14.6295 1.78422 14.1772C2.28488 12.7075 2.64695 11.6449 1.87877 9.38332L1.82935 9.23828C1.36737 7.88456 0.409021 5.06754 1.64456 3.59242C2.45249 2.62763 4.13819 2.33432 6.64579 2.72003C8.53884 3.01118 9.85926 2.31713 11.026 1.70474L11.5009 1.45871C12.5602 0.925814 15.7479 0.677632 16.8105 2.2806C17.684 3.59457 18.7358 4.90854 21.1488 5.28779C22.2157 5.45539 23.1773 6.41696 23.6554 7.79647C24.1431 9.19423 24.1754 11.2151 22.8055 12.6903Z" fill="#27D0E6"/>
</svg>
