<svg width="101" height="102" viewBox="0 0 101 102" fill="none" xmlns="http://www.w3.org/2000/svg">
<mask id="path-1-outside-1_1_362" maskUnits="userSpaceOnUse" x="-0.502075" y="0.000244141" width="102" height="102" fill="black">
<rect fill="white" x="-0.502075" y="0.000244141" width="102" height="102"/>
<path d="M100.498 48.438V48.0832C100.498 43.3903 96.6805 39.5729 91.9876 39.5729H91.6328C89.473 39.5729 87.5622 40.3032 85.9523 41.7471C83.1017 44.3032 79.2739 46.0791 75.0208 46.882C73.9585 44.8716 72.3652 43.05 70.2573 41.438C70.888 41.3073 71.5104 41.1185 72.1535 40.8571L77.9606 38.5044C79.4523 37.9007 80.4917 36.6496 80.8133 35.0708L81.5436 31.4774C81.7137 30.6413 81.5104 29.8177 80.971 29.1579C80.4315 28.4982 79.6639 28.1351 78.8112 28.1351H66.2282C65.0353 28.1351 63.9876 28.7637 63.4274 29.8156L62.8568 30.8861L59.2614 23.9339C56.6909 18.9629 51.639 15.9961 45.7469 15.9961H38.9523L43.7697 14.4608C44.473 14.2368 44.9461 13.5708 44.9461 12.8073C44.9461 12.0417 44.473 11.3778 43.7697 11.1538L37.8029 9.25336L36.1286 2.30937C35.9419 1.53966 35.278 1.00024 34.5104 1.00024C33.7427 1.00024 33.0788 1.53759 32.8921 2.30937L31.2178 9.25336L25.2531 11.1538C24.5498 11.3778 24.0768 12.0417 24.0768 12.8073C24.0768 13.5729 24.5498 14.2368 25.2531 14.4608L30.0705 15.9961H1.74274C1.05602 15.9961 0.497925 16.5542 0.497925 17.2409V75.2326C0.497925 75.9193 1.05602 76.4774 1.74274 76.4774H46.1805C45.3029 80.3467 43.6079 83.8177 41.2448 86.4525C39.8029 88.0604 39.0705 89.9733 39.0705 92.133V92.4878C39.0705 97.1807 42.888 100.998 47.5809 100.998H47.9357C50.0954 100.998 52.0062 100.268 53.6162 98.8239C54.8382 97.7305 56.249 96.7741 57.8216 95.967L58.3485 97.2803C58.6681 98.077 58.805 98.7824 58.805 99.6393V99.7534C58.805 100.44 59.3631 100.998 60.0498 100.998H77.9689C78.6556 100.998 79.2137 100.44 79.2137 99.7534V99.6704C79.2137 98.6849 79.3921 97.8841 79.8071 96.9919L80.5519 95.3965C82.6079 96.3031 84.4232 97.4525 85.9564 98.826C87.5643 100.268 89.4772 101 91.6369 101H91.9917C96.6846 101 100.502 97.1828 100.502 92.4899V92.1351C100.502 89.9753 99.7718 88.0646 98.3278 86.4546C94.7552 82.4712 92.7075 76.577 92.7075 70.2866C92.7075 63.9961 94.7552 58.1019 98.3278 54.1185C99.7676 52.5085 100.498 50.5978 100.498 48.438ZM72.3631 47.2492C71.5145 47.326 70.6535 47.3654 69.7842 47.3654C65.4689 47.3654 61.3423 46.4007 57.89 44.6434L66.2552 41.7658C69.0062 43.3467 71.0539 45.1849 72.3631 47.2492ZM65.6224 30.9857C65.751 30.7451 65.9544 30.6227 66.2261 30.6227H78.8091C78.9149 30.6227 78.973 30.6496 79.0415 30.7326C79.1079 30.8135 79.1245 30.8778 79.1037 30.9816L78.3734 34.5749C78.2178 35.3426 77.751 35.9027 77.027 36.1973L71.2199 38.55C70.1556 38.9816 69.2137 39.1641 68.0643 39.1641H67.1369L64.2448 33.5708L65.6224 30.9857ZM32.6432 11.411C33.0581 11.2783 33.3734 10.9401 33.4751 10.5168L34.5104 6.22016L35.5456 10.5168C35.6473 10.9401 35.9627 11.2783 36.3776 11.411L40.7573 12.8073L36.3776 14.2036C35.9627 14.3363 35.6473 14.6745 35.5456 15.0978L34.5104 19.3944L33.4751 15.0978C33.3734 14.6745 33.0581 14.3363 32.6432 14.2036L28.2635 12.8073L32.6432 11.411ZM31.7303 18.4857L32.8921 23.3073C33.0788 24.0791 33.7427 24.6164 34.5104 24.6164C35.2759 24.6164 35.9419 24.0791 36.1286 23.3073L37.2905 18.4857H45.7448C50.6888 18.4857 54.9149 20.9505 57.0498 25.077L64.612 39.6994L55.1286 42.9608C54.5996 42.577 54.0954 42.1724 53.6183 41.7451C52.0104 40.3031 50.0975 39.5708 47.9378 39.5708H47.583C43.9876 39.5708 40.9087 41.8135 39.6639 44.9712L20.6929 45.0459L21.168 43.0749L28.8506 40.6268C29.6017 40.3882 30.1079 39.6745 30.1079 38.8509C30.1079 38.0272 29.6017 37.3156 28.8506 37.0749L21.168 34.6268L19.0187 25.7077C18.8195 24.882 18.112 24.3073 17.2967 24.3073C16.4813 24.3073 15.7739 24.8841 15.5747 25.7077L13.4232 34.633L5.74066 37.0812C4.98963 37.3197 4.4834 38.0334 4.4834 38.8571C4.4834 39.6807 4.98963 40.3924 5.74066 40.633L13.4232 43.0812L13.9046 45.0791L2.98755 45.1185V18.4857H31.7303ZM14.8465 40.9193L8.36929 38.855L14.8465 36.7907C15.2614 36.6579 15.5768 36.3197 15.6784 35.8965L17.2946 29.1911L18.9108 35.8965C19.0124 36.3197 19.3278 36.6579 19.7427 36.7907L26.2199 38.855L19.7427 40.9193C19.3278 41.0521 19.0124 41.3903 18.9108 41.8135L17.2946 48.5189L15.6784 41.8135C15.5768 41.3903 15.2614 41.0521 14.8465 40.9193ZM2.98755 60.8944L41.4523 60.7513C41.5768 60.7492 41.6577 60.7824 41.7469 60.8716C41.8361 60.9608 41.8693 61.0376 41.8693 61.1662V65.0044C41.8693 65.2326 41.6846 65.4193 41.4564 65.4193L2.98755 65.5625V60.8944ZM2.98755 73.9878V68.0521L41.4647 67.909C43.0602 67.9027 44.3589 66.5998 44.3589 65.0044V61.1662C44.3589 60.3778 44.0643 59.6662 43.5041 59.1081C42.9481 58.5542 42.2386 58.2617 41.4544 58.2617C41.4502 58.2617 41.4461 58.2617 41.444 58.2617L2.98755 58.4048V47.6102L14.5041 47.5646L15.5726 51.9982C15.7718 52.8239 16.4793 53.3986 17.2946 53.3986C18.11 53.3986 18.8174 52.8218 19.0166 51.9982L20.0913 47.5417L39.0954 47.467C39.0809 47.6704 39.0705 47.8778 39.0705 48.0853V48.4401C39.0705 50.5998 39.8008 52.5106 41.2448 54.1206C44.8174 58.106 46.8651 63.9982 46.8651 70.2886C46.8651 71.5438 46.7822 72.7803 46.6245 73.9919H2.98755V73.9878ZM77.5498 95.9401C77.1535 96.7886 76.9066 97.6247 76.7946 98.5085H61.2282C61.1369 97.7783 60.9523 97.0832 60.6598 96.355L56.5249 86.0438C56.1639 85.1434 55.9896 84.3426 55.9419 83.3716L55.5519 75.2305C55.5311 74.7865 55.5788 74.4152 55.7158 73.9919L57.7469 67.6828C57.7967 67.5293 57.8776 67.4442 58.029 67.3903C58.1805 67.3343 58.2967 67.3488 58.4336 67.4339C60.0042 68.4276 60.7344 70.3114 60.249 72.1185L59.471 75.021C59.4419 75.1268 59.4295 75.2347 59.4295 75.3426V79.4463C59.4295 80.2036 59.888 80.8695 60.5954 81.1413C61.3029 81.411 62.0871 81.2222 62.5934 80.6579L64.3402 78.7098C65.6763 77.2202 66.3527 75.4504 66.3527 73.4484V59.2658C66.3527 58.5936 66.9004 58.0459 67.5726 58.0459H67.6846C68.3568 58.0459 68.9046 58.5936 68.9046 59.2658V75.9878C68.9046 76.6745 69.4627 77.2326 70.1494 77.2326C70.8361 77.2326 71.3942 76.6745 71.3942 75.9878V56.9069C71.3942 56.2347 71.9419 55.687 72.6141 55.687H72.7261C73.3983 55.687 73.9461 56.2347 73.9461 56.9069V75.9878C73.9461 76.6745 74.5042 77.2326 75.1909 77.2326C75.8776 77.2326 76.4357 76.6745 76.4357 75.9878V59.2658C76.4357 58.5936 76.9834 58.0459 77.6556 58.0459H77.7676C78.4398 58.0459 78.9876 58.5936 78.9876 59.2658V75.9878C78.9876 76.6745 79.5456 77.2326 80.2324 77.2326C80.9191 77.2326 81.4772 76.6745 81.4772 75.9878V67.8612C81.4772 67.189 82.0249 66.6413 82.6971 66.6413H82.8091C83.4813 66.6413 84.029 67.189 84.029 67.8612V81.0666C84.029 81.7575 83.9046 82.3197 83.612 82.9442L77.5498 95.9401ZM98.0083 48.438C98.0083 49.9878 97.5062 51.3032 96.471 52.4567C92.4958 56.8924 90.2158 63.3903 90.2158 70.2866C90.2158 77.1828 92.4958 83.6807 96.471 88.1164C97.5062 89.27 98.0083 90.5853 98.0083 92.1351V92.4899C98.0083 95.8094 95.3071 98.5106 91.9876 98.5106H91.6328C90.083 98.5106 88.7676 98.0085 87.6141 96.9733C85.8983 95.4359 83.8776 94.1517 81.6017 93.1413L85.8651 84.0002C86.3091 83.05 86.5145 82.1185 86.5145 81.0708V67.8654C86.5145 65.8197 84.8506 64.1558 82.805 64.1558H82.6929C82.2656 64.1558 81.8548 64.2326 81.473 64.3654V59.27C81.473 57.2243 79.8091 55.5604 77.7635 55.5604H77.6515C77.1618 55.5604 76.6971 55.6579 76.2697 55.8301C75.805 54.3114 74.3921 53.2036 72.722 53.2036H72.61C70.9398 53.2036 69.527 54.3114 69.0622 55.8301C68.6349 55.6579 68.168 55.5604 67.6805 55.5604H67.5685C65.5228 55.5604 63.8589 57.2243 63.8589 59.27V73.4525C63.8589 74.8405 63.4087 76.0189 62.4813 77.0521L61.9149 77.6849V75.5127L62.6494 72.7679C63.417 69.9007 62.2573 66.9152 59.7614 65.3343C58.973 64.8343 58.056 64.7347 57.1784 65.0542C56.3008 65.3716 55.6598 66.0355 55.3734 66.9256L53.3423 73.2347C53.112 73.9504 53.0249 74.604 53.0622 75.355L53.4523 83.4961C53.5124 84.743 53.7469 85.8156 54.2116 86.9753L56.89 93.6538C55.0456 94.5791 53.388 95.6911 51.9544 96.9753C50.8008 98.0106 49.4855 98.5127 47.9357 98.5127H47.5809C44.2614 98.5127 41.5602 95.8114 41.5602 92.4919V92.1372C41.5602 90.5874 42.0622 89.272 43.0975 88.1185C47.0726 83.6828 49.3527 77.1849 49.3527 70.2886C49.3527 63.3924 47.0726 56.8944 43.0975 52.4588C42.0622 51.3052 41.5602 49.9899 41.5602 48.4401V48.0853C41.5602 44.7658 44.2614 42.0646 47.5809 42.0646H47.9357C49.4855 42.0646 50.8008 42.5666 51.9544 43.6019C56.39 47.577 62.888 49.8571 69.7842 49.8571C76.6805 49.8571 83.1784 47.577 87.6141 43.6019C88.7676 42.5666 90.083 42.0646 91.6328 42.0646H91.9876C95.3071 42.0646 98.0083 44.7658 98.0083 48.0853V48.438Z"/>
</mask>
<path d="M100.498 48.438V48.0832C100.498 43.3903 96.6805 39.5729 91.9876 39.5729H91.6328C89.473 39.5729 87.5622 40.3032 85.9523 41.7471C83.1017 44.3032 79.2739 46.0791 75.0208 46.882C73.9585 44.8716 72.3652 43.05 70.2573 41.438C70.888 41.3073 71.5104 41.1185 72.1535 40.8571L77.9606 38.5044C79.4523 37.9007 80.4917 36.6496 80.8133 35.0708L81.5436 31.4774C81.7137 30.6413 81.5104 29.8177 80.971 29.1579C80.4315 28.4982 79.6639 28.1351 78.8112 28.1351H66.2282C65.0353 28.1351 63.9876 28.7637 63.4274 29.8156L62.8568 30.8861L59.2614 23.9339C56.6909 18.9629 51.639 15.9961 45.7469 15.9961H38.9523L43.7697 14.4608C44.473 14.2368 44.9461 13.5708 44.9461 12.8073C44.9461 12.0417 44.473 11.3778 43.7697 11.1538L37.8029 9.25336L36.1286 2.30937C35.9419 1.53966 35.278 1.00024 34.5104 1.00024C33.7427 1.00024 33.0788 1.53759 32.8921 2.30937L31.2178 9.25336L25.2531 11.1538C24.5498 11.3778 24.0768 12.0417 24.0768 12.8073C24.0768 13.5729 24.5498 14.2368 25.2531 14.4608L30.0705 15.9961H1.74274C1.05602 15.9961 0.497925 16.5542 0.497925 17.2409V75.2326C0.497925 75.9193 1.05602 76.4774 1.74274 76.4774H46.1805C45.3029 80.3467 43.6079 83.8177 41.2448 86.4525C39.8029 88.0604 39.0705 89.9733 39.0705 92.133V92.4878C39.0705 97.1807 42.888 100.998 47.5809 100.998H47.9357C50.0954 100.998 52.0062 100.268 53.6162 98.8239C54.8382 97.7305 56.249 96.7741 57.8216 95.967L58.3485 97.2803C58.6681 98.077 58.805 98.7824 58.805 99.6393V99.7534C58.805 100.44 59.3631 100.998 60.0498 100.998H77.9689C78.6556 100.998 79.2137 100.44 79.2137 99.7534V99.6704C79.2137 98.6849 79.3921 97.8841 79.8071 96.9919L80.5519 95.3965C82.6079 96.3031 84.4232 97.4525 85.9564 98.826C87.5643 100.268 89.4772 101 91.6369 101H91.9917C96.6846 101 100.502 97.1828 100.502 92.4899V92.1351C100.502 89.9753 99.7718 88.0646 98.3278 86.4546C94.7552 82.4712 92.7075 76.577 92.7075 70.2866C92.7075 63.9961 94.7552 58.1019 98.3278 54.1185C99.7676 52.5085 100.498 50.5978 100.498 48.438ZM72.3631 47.2492C71.5145 47.326 70.6535 47.3654 69.7842 47.3654C65.4689 47.3654 61.3423 46.4007 57.89 44.6434L66.2552 41.7658C69.0062 43.3467 71.0539 45.1849 72.3631 47.2492ZM65.6224 30.9857C65.751 30.7451 65.9544 30.6227 66.2261 30.6227H78.8091C78.9149 30.6227 78.973 30.6496 79.0415 30.7326C79.1079 30.8135 79.1245 30.8778 79.1037 30.9816L78.3734 34.5749C78.2178 35.3426 77.751 35.9027 77.027 36.1973L71.2199 38.55C70.1556 38.9816 69.2137 39.1641 68.0643 39.1641H67.1369L64.2448 33.5708L65.6224 30.9857ZM32.6432 11.411C33.0581 11.2783 33.3734 10.9401 33.4751 10.5168L34.5104 6.22016L35.5456 10.5168C35.6473 10.9401 35.9627 11.2783 36.3776 11.411L40.7573 12.8073L36.3776 14.2036C35.9627 14.3363 35.6473 14.6745 35.5456 15.0978L34.5104 19.3944L33.4751 15.0978C33.3734 14.6745 33.0581 14.3363 32.6432 14.2036L28.2635 12.8073L32.6432 11.411ZM31.7303 18.4857L32.8921 23.3073C33.0788 24.0791 33.7427 24.6164 34.5104 24.6164C35.2759 24.6164 35.9419 24.0791 36.1286 23.3073L37.2905 18.4857H45.7448C50.6888 18.4857 54.9149 20.9505 57.0498 25.077L64.612 39.6994L55.1286 42.9608C54.5996 42.577 54.0954 42.1724 53.6183 41.7451C52.0104 40.3031 50.0975 39.5708 47.9378 39.5708H47.583C43.9876 39.5708 40.9087 41.8135 39.6639 44.9712L20.6929 45.0459L21.168 43.0749L28.8506 40.6268C29.6017 40.3882 30.1079 39.6745 30.1079 38.8509C30.1079 38.0272 29.6017 37.3156 28.8506 37.0749L21.168 34.6268L19.0187 25.7077C18.8195 24.882 18.112 24.3073 17.2967 24.3073C16.4813 24.3073 15.7739 24.8841 15.5747 25.7077L13.4232 34.633L5.74066 37.0812C4.98963 37.3197 4.4834 38.0334 4.4834 38.8571C4.4834 39.6807 4.98963 40.3924 5.74066 40.633L13.4232 43.0812L13.9046 45.0791L2.98755 45.1185V18.4857H31.7303ZM14.8465 40.9193L8.36929 38.855L14.8465 36.7907C15.2614 36.6579 15.5768 36.3197 15.6784 35.8965L17.2946 29.1911L18.9108 35.8965C19.0124 36.3197 19.3278 36.6579 19.7427 36.7907L26.2199 38.855L19.7427 40.9193C19.3278 41.0521 19.0124 41.3903 18.9108 41.8135L17.2946 48.5189L15.6784 41.8135C15.5768 41.3903 15.2614 41.0521 14.8465 40.9193ZM2.98755 60.8944L41.4523 60.7513C41.5768 60.7492 41.6577 60.7824 41.7469 60.8716C41.8361 60.9608 41.8693 61.0376 41.8693 61.1662V65.0044C41.8693 65.2326 41.6846 65.4193 41.4564 65.4193L2.98755 65.5625V60.8944ZM2.98755 73.9878V68.0521L41.4647 67.909C43.0602 67.9027 44.3589 66.5998 44.3589 65.0044V61.1662C44.3589 60.3778 44.0643 59.6662 43.5041 59.1081C42.9481 58.5542 42.2386 58.2617 41.4544 58.2617C41.4502 58.2617 41.4461 58.2617 41.444 58.2617L2.98755 58.4048V47.6102L14.5041 47.5646L15.5726 51.9982C15.7718 52.8239 16.4793 53.3986 17.2946 53.3986C18.11 53.3986 18.8174 52.8218 19.0166 51.9982L20.0913 47.5417L39.0954 47.467C39.0809 47.6704 39.0705 47.8778 39.0705 48.0853V48.4401C39.0705 50.5998 39.8008 52.5106 41.2448 54.1206C44.8174 58.106 46.8651 63.9982 46.8651 70.2886C46.8651 71.5438 46.7822 72.7803 46.6245 73.9919H2.98755V73.9878ZM77.5498 95.9401C77.1535 96.7886 76.9066 97.6247 76.7946 98.5085H61.2282C61.1369 97.7783 60.9523 97.0832 60.6598 96.355L56.5249 86.0438C56.1639 85.1434 55.9896 84.3426 55.9419 83.3716L55.5519 75.2305C55.5311 74.7865 55.5788 74.4152 55.7158 73.9919L57.7469 67.6828C57.7967 67.5293 57.8776 67.4442 58.029 67.3903C58.1805 67.3343 58.2967 67.3488 58.4336 67.4339C60.0042 68.4276 60.7344 70.3114 60.249 72.1185L59.471 75.021C59.4419 75.1268 59.4295 75.2347 59.4295 75.3426V79.4463C59.4295 80.2036 59.888 80.8695 60.5954 81.1413C61.3029 81.411 62.0871 81.2222 62.5934 80.6579L64.3402 78.7098C65.6763 77.2202 66.3527 75.4504 66.3527 73.4484V59.2658C66.3527 58.5936 66.9004 58.0459 67.5726 58.0459H67.6846C68.3568 58.0459 68.9046 58.5936 68.9046 59.2658V75.9878C68.9046 76.6745 69.4627 77.2326 70.1494 77.2326C70.8361 77.2326 71.3942 76.6745 71.3942 75.9878V56.9069C71.3942 56.2347 71.9419 55.687 72.6141 55.687H72.7261C73.3983 55.687 73.9461 56.2347 73.9461 56.9069V75.9878C73.9461 76.6745 74.5042 77.2326 75.1909 77.2326C75.8776 77.2326 76.4357 76.6745 76.4357 75.9878V59.2658C76.4357 58.5936 76.9834 58.0459 77.6556 58.0459H77.7676C78.4398 58.0459 78.9876 58.5936 78.9876 59.2658V75.9878C78.9876 76.6745 79.5456 77.2326 80.2324 77.2326C80.9191 77.2326 81.4772 76.6745 81.4772 75.9878V67.8612C81.4772 67.189 82.0249 66.6413 82.6971 66.6413H82.8091C83.4813 66.6413 84.029 67.189 84.029 67.8612V81.0666C84.029 81.7575 83.9046 82.3197 83.612 82.9442L77.5498 95.9401ZM98.0083 48.438C98.0083 49.9878 97.5062 51.3032 96.471 52.4567C92.4958 56.8924 90.2158 63.3903 90.2158 70.2866C90.2158 77.1828 92.4958 83.6807 96.471 88.1164C97.5062 89.27 98.0083 90.5853 98.0083 92.1351V92.4899C98.0083 95.8094 95.3071 98.5106 91.9876 98.5106H91.6328C90.083 98.5106 88.7676 98.0085 87.6141 96.9733C85.8983 95.4359 83.8776 94.1517 81.6017 93.1413L85.8651 84.0002C86.3091 83.05 86.5145 82.1185 86.5145 81.0708V67.8654C86.5145 65.8197 84.8506 64.1558 82.805 64.1558H82.6929C82.2656 64.1558 81.8548 64.2326 81.473 64.3654V59.27C81.473 57.2243 79.8091 55.5604 77.7635 55.5604H77.6515C77.1618 55.5604 76.6971 55.6579 76.2697 55.8301C75.805 54.3114 74.3921 53.2036 72.722 53.2036H72.61C70.9398 53.2036 69.527 54.3114 69.0622 55.8301C68.6349 55.6579 68.168 55.5604 67.6805 55.5604H67.5685C65.5228 55.5604 63.8589 57.2243 63.8589 59.27V73.4525C63.8589 74.8405 63.4087 76.0189 62.4813 77.0521L61.9149 77.6849V75.5127L62.6494 72.7679C63.417 69.9007 62.2573 66.9152 59.7614 65.3343C58.973 64.8343 58.056 64.7347 57.1784 65.0542C56.3008 65.3716 55.6598 66.0355 55.3734 66.9256L53.3423 73.2347C53.112 73.9504 53.0249 74.604 53.0622 75.355L53.4523 83.4961C53.5124 84.743 53.7469 85.8156 54.2116 86.9753L56.89 93.6538C55.0456 94.5791 53.388 95.6911 51.9544 96.9753C50.8008 98.0106 49.4855 98.5127 47.9357 98.5127H47.5809C44.2614 98.5127 41.5602 95.8114 41.5602 92.4919V92.1372C41.5602 90.5874 42.0622 89.272 43.0975 88.1185C47.0726 83.6828 49.3527 77.1849 49.3527 70.2886C49.3527 63.3924 47.0726 56.8944 43.0975 52.4588C42.0622 51.3052 41.5602 49.9899 41.5602 48.4401V48.0853C41.5602 44.7658 44.2614 42.0646 47.5809 42.0646H47.9357C49.4855 42.0646 50.8008 42.5666 51.9544 43.6019C56.39 47.577 62.888 49.8571 69.7842 49.8571C76.6805 49.8571 83.1784 47.577 87.6141 43.6019C88.7676 42.5666 90.083 42.0646 91.6328 42.0646H91.9876C95.3071 42.0646 98.0083 44.7658 98.0083 48.0853V48.438Z" fill="white"/>
<path d="M100.498 48.438V48.0832C100.498 43.3903 96.6805 39.5729 91.9876 39.5729H91.6328C89.473 39.5729 87.5622 40.3032 85.9523 41.7471C83.1017 44.3032 79.2739 46.0791 75.0208 46.882C73.9585 44.8716 72.3652 43.05 70.2573 41.438C70.888 41.3073 71.5104 41.1185 72.1535 40.8571L77.9606 38.5044C79.4523 37.9007 80.4917 36.6496 80.8133 35.0708L81.5436 31.4774C81.7137 30.6413 81.5104 29.8177 80.971 29.1579C80.4315 28.4982 79.6639 28.1351 78.8112 28.1351H66.2282C65.0353 28.1351 63.9876 28.7637 63.4274 29.8156L62.8568 30.8861L59.2614 23.9339C56.6909 18.9629 51.639 15.9961 45.7469 15.9961H38.9523L43.7697 14.4608C44.473 14.2368 44.9461 13.5708 44.9461 12.8073C44.9461 12.0417 44.473 11.3778 43.7697 11.1538L37.8029 9.25336L36.1286 2.30937C35.9419 1.53966 35.278 1.00024 34.5104 1.00024C33.7427 1.00024 33.0788 1.53759 32.8921 2.30937L31.2178 9.25336L25.2531 11.1538C24.5498 11.3778 24.0768 12.0417 24.0768 12.8073C24.0768 13.5729 24.5498 14.2368 25.2531 14.4608L30.0705 15.9961H1.74274C1.05602 15.9961 0.497925 16.5542 0.497925 17.2409V75.2326C0.497925 75.9193 1.05602 76.4774 1.74274 76.4774H46.1805C45.3029 80.3467 43.6079 83.8177 41.2448 86.4525C39.8029 88.0604 39.0705 89.9733 39.0705 92.133V92.4878C39.0705 97.1807 42.888 100.998 47.5809 100.998H47.9357C50.0954 100.998 52.0062 100.268 53.6162 98.8239C54.8382 97.7305 56.249 96.7741 57.8216 95.967L58.3485 97.2803C58.6681 98.077 58.805 98.7824 58.805 99.6393V99.7534C58.805 100.44 59.3631 100.998 60.0498 100.998H77.9689C78.6556 100.998 79.2137 100.44 79.2137 99.7534V99.6704C79.2137 98.6849 79.3921 97.8841 79.8071 96.9919L80.5519 95.3965C82.6079 96.3031 84.4232 97.4525 85.9564 98.826C87.5643 100.268 89.4772 101 91.6369 101H91.9917C96.6846 101 100.502 97.1828 100.502 92.4899V92.1351C100.502 89.9753 99.7718 88.0646 98.3278 86.4546C94.7552 82.4712 92.7075 76.577 92.7075 70.2866C92.7075 63.9961 94.7552 58.1019 98.3278 54.1185C99.7676 52.5085 100.498 50.5978 100.498 48.438ZM72.3631 47.2492C71.5145 47.326 70.6535 47.3654 69.7842 47.3654C65.4689 47.3654 61.3423 46.4007 57.89 44.6434L66.2552 41.7658C69.0062 43.3467 71.0539 45.1849 72.3631 47.2492ZM65.6224 30.9857C65.751 30.7451 65.9544 30.6227 66.2261 30.6227H78.8091C78.9149 30.6227 78.973 30.6496 79.0415 30.7326C79.1079 30.8135 79.1245 30.8778 79.1037 30.9816L78.3734 34.5749C78.2178 35.3426 77.751 35.9027 77.027 36.1973L71.2199 38.55C70.1556 38.9816 69.2137 39.1641 68.0643 39.1641H67.1369L64.2448 33.5708L65.6224 30.9857ZM32.6432 11.411C33.0581 11.2783 33.3734 10.9401 33.4751 10.5168L34.5104 6.22016L35.5456 10.5168C35.6473 10.9401 35.9627 11.2783 36.3776 11.411L40.7573 12.8073L36.3776 14.2036C35.9627 14.3363 35.6473 14.6745 35.5456 15.0978L34.5104 19.3944L33.4751 15.0978C33.3734 14.6745 33.0581 14.3363 32.6432 14.2036L28.2635 12.8073L32.6432 11.411ZM31.7303 18.4857L32.8921 23.3073C33.0788 24.0791 33.7427 24.6164 34.5104 24.6164C35.2759 24.6164 35.9419 24.0791 36.1286 23.3073L37.2905 18.4857H45.7448C50.6888 18.4857 54.9149 20.9505 57.0498 25.077L64.612 39.6994L55.1286 42.9608C54.5996 42.577 54.0954 42.1724 53.6183 41.7451C52.0104 40.3031 50.0975 39.5708 47.9378 39.5708H47.583C43.9876 39.5708 40.9087 41.8135 39.6639 44.9712L20.6929 45.0459L21.168 43.0749L28.8506 40.6268C29.6017 40.3882 30.1079 39.6745 30.1079 38.8509C30.1079 38.0272 29.6017 37.3156 28.8506 37.0749L21.168 34.6268L19.0187 25.7077C18.8195 24.882 18.112 24.3073 17.2967 24.3073C16.4813 24.3073 15.7739 24.8841 15.5747 25.7077L13.4232 34.633L5.74066 37.0812C4.98963 37.3197 4.4834 38.0334 4.4834 38.8571C4.4834 39.6807 4.98963 40.3924 5.74066 40.633L13.4232 43.0812L13.9046 45.0791L2.98755 45.1185V18.4857H31.7303ZM14.8465 40.9193L8.36929 38.855L14.8465 36.7907C15.2614 36.6579 15.5768 36.3197 15.6784 35.8965L17.2946 29.1911L18.9108 35.8965C19.0124 36.3197 19.3278 36.6579 19.7427 36.7907L26.2199 38.855L19.7427 40.9193C19.3278 41.0521 19.0124 41.3903 18.9108 41.8135L17.2946 48.5189L15.6784 41.8135C15.5768 41.3903 15.2614 41.0521 14.8465 40.9193ZM2.98755 60.8944L41.4523 60.7513C41.5768 60.7492 41.6577 60.7824 41.7469 60.8716C41.8361 60.9608 41.8693 61.0376 41.8693 61.1662V65.0044C41.8693 65.2326 41.6846 65.4193 41.4564 65.4193L2.98755 65.5625V60.8944ZM2.98755 73.9878V68.0521L41.4647 67.909C43.0602 67.9027 44.3589 66.5998 44.3589 65.0044V61.1662C44.3589 60.3778 44.0643 59.6662 43.5041 59.1081C42.9481 58.5542 42.2386 58.2617 41.4544 58.2617C41.4502 58.2617 41.4461 58.2617 41.444 58.2617L2.98755 58.4048V47.6102L14.5041 47.5646L15.5726 51.9982C15.7718 52.8239 16.4793 53.3986 17.2946 53.3986C18.11 53.3986 18.8174 52.8218 19.0166 51.9982L20.0913 47.5417L39.0954 47.467C39.0809 47.6704 39.0705 47.8778 39.0705 48.0853V48.4401C39.0705 50.5998 39.8008 52.5106 41.2448 54.1206C44.8174 58.106 46.8651 63.9982 46.8651 70.2886C46.8651 71.5438 46.7822 72.7803 46.6245 73.9919H2.98755V73.9878ZM77.5498 95.9401C77.1535 96.7886 76.9066 97.6247 76.7946 98.5085H61.2282C61.1369 97.7783 60.9523 97.0832 60.6598 96.355L56.5249 86.0438C56.1639 85.1434 55.9896 84.3426 55.9419 83.3716L55.5519 75.2305C55.5311 74.7865 55.5788 74.4152 55.7158 73.9919L57.7469 67.6828C57.7967 67.5293 57.8776 67.4442 58.029 67.3903C58.1805 67.3343 58.2967 67.3488 58.4336 67.4339C60.0042 68.4276 60.7344 70.3114 60.249 72.1185L59.471 75.021C59.4419 75.1268 59.4295 75.2347 59.4295 75.3426V79.4463C59.4295 80.2036 59.888 80.8695 60.5954 81.1413C61.3029 81.411 62.0871 81.2222 62.5934 80.6579L64.3402 78.7098C65.6763 77.2202 66.3527 75.4504 66.3527 73.4484V59.2658C66.3527 58.5936 66.9004 58.0459 67.5726 58.0459H67.6846C68.3568 58.0459 68.9046 58.5936 68.9046 59.2658V75.9878C68.9046 76.6745 69.4627 77.2326 70.1494 77.2326C70.8361 77.2326 71.3942 76.6745 71.3942 75.9878V56.9069C71.3942 56.2347 71.9419 55.687 72.6141 55.687H72.7261C73.3983 55.687 73.9461 56.2347 73.9461 56.9069V75.9878C73.9461 76.6745 74.5042 77.2326 75.1909 77.2326C75.8776 77.2326 76.4357 76.6745 76.4357 75.9878V59.2658C76.4357 58.5936 76.9834 58.0459 77.6556 58.0459H77.7676C78.4398 58.0459 78.9876 58.5936 78.9876 59.2658V75.9878C78.9876 76.6745 79.5456 77.2326 80.2324 77.2326C80.9191 77.2326 81.4772 76.6745 81.4772 75.9878V67.8612C81.4772 67.189 82.0249 66.6413 82.6971 66.6413H82.8091C83.4813 66.6413 84.029 67.189 84.029 67.8612V81.0666C84.029 81.7575 83.9046 82.3197 83.612 82.9442L77.5498 95.9401ZM98.0083 48.438C98.0083 49.9878 97.5062 51.3032 96.471 52.4567C92.4958 56.8924 90.2158 63.3903 90.2158 70.2866C90.2158 77.1828 92.4958 83.6807 96.471 88.1164C97.5062 89.27 98.0083 90.5853 98.0083 92.1351V92.4899C98.0083 95.8094 95.3071 98.5106 91.9876 98.5106H91.6328C90.083 98.5106 88.7676 98.0085 87.6141 96.9733C85.8983 95.4359 83.8776 94.1517 81.6017 93.1413L85.8651 84.0002C86.3091 83.05 86.5145 82.1185 86.5145 81.0708V67.8654C86.5145 65.8197 84.8506 64.1558 82.805 64.1558H82.6929C82.2656 64.1558 81.8548 64.2326 81.473 64.3654V59.27C81.473 57.2243 79.8091 55.5604 77.7635 55.5604H77.6515C77.1618 55.5604 76.6971 55.6579 76.2697 55.8301C75.805 54.3114 74.3921 53.2036 72.722 53.2036H72.61C70.9398 53.2036 69.527 54.3114 69.0622 55.8301C68.6349 55.6579 68.168 55.5604 67.6805 55.5604H67.5685C65.5228 55.5604 63.8589 57.2243 63.8589 59.27V73.4525C63.8589 74.8405 63.4087 76.0189 62.4813 77.0521L61.9149 77.6849V75.5127L62.6494 72.7679C63.417 69.9007 62.2573 66.9152 59.7614 65.3343C58.973 64.8343 58.056 64.7347 57.1784 65.0542C56.3008 65.3716 55.6598 66.0355 55.3734 66.9256L53.3423 73.2347C53.112 73.9504 53.0249 74.604 53.0622 75.355L53.4523 83.4961C53.5124 84.743 53.7469 85.8156 54.2116 86.9753L56.89 93.6538C55.0456 94.5791 53.388 95.6911 51.9544 96.9753C50.8008 98.0106 49.4855 98.5127 47.9357 98.5127H47.5809C44.2614 98.5127 41.5602 95.8114 41.5602 92.4919V92.1372C41.5602 90.5874 42.0622 89.272 43.0975 88.1185C47.0726 83.6828 49.3527 77.1849 49.3527 70.2886C49.3527 63.3924 47.0726 56.8944 43.0975 52.4588C42.0622 51.3052 41.5602 49.9899 41.5602 48.4401V48.0853C41.5602 44.7658 44.2614 42.0646 47.5809 42.0646H47.9357C49.4855 42.0646 50.8008 42.5666 51.9544 43.6019C56.39 47.577 62.888 49.8571 69.7842 49.8571C76.6805 49.8571 83.1784 47.577 87.6141 43.6019C88.7676 42.5666 90.083 42.0646 91.6328 42.0646H91.9876C95.3071 42.0646 98.0083 44.7658 98.0083 48.0853V48.438Z" stroke="white" mask="url(#path-1-outside-1_1_362)"/>
<path d="M18.922 25.6686C18.4646 24.3044 16.5352 24.3044 16.0777 25.6686L13.2552 34.0852C13.209 34.2232 13.1049 34.3342 12.9702 34.3892L5.07825 37.6115C3.83428 38.1195 3.83428 39.881 5.07825 40.3889L12.9702 43.6113C13.1049 43.6663 13.209 43.7773 13.2552 43.9153L16.0777 52.3319C16.5352 53.696 18.4646 53.6961 18.922 52.3319L21.7445 43.9153C21.7908 43.7773 21.8948 43.6663 22.0296 43.6113L29.9215 40.3889C31.1655 39.881 31.1655 38.1195 29.9215 37.6115L22.0296 34.3892C21.8948 34.3342 21.7908 34.2232 21.7445 34.0852L18.922 25.6686Z" fill="#2DCBE0" stroke="#2DCBE0"/>
<path d="M35.9254 2.74806C35.4744 1.37025 33.5253 1.37025 33.0743 2.74806L31.061 8.89865C31.0158 9.03672 30.9128 9.14831 30.7788 9.20437L25.0124 11.6164C23.7842 12.1302 23.7842 13.8703 25.0124 14.3841L30.7788 16.7961C30.9128 16.8522 31.0158 16.9638 31.061 17.1018L33.0743 23.2524C33.5253 24.6302 35.4744 24.6302 35.9254 23.2524L37.9388 17.1018C37.984 16.9638 38.087 16.8522 38.221 16.7961L43.9874 14.3841C45.2156 13.8703 45.2156 12.1302 43.9874 11.6164L38.221 9.20437C38.087 9.14831 37.984 9.03672 37.9388 8.89865L35.9254 2.74806Z" fill="#2DCBE0" stroke="#2DCBE0"/>
</svg>
